<svg xmlns="http://www.w3.org/2000/svg" width="198.715" height="200" viewBox="0 0 198.715 200">
  <g id="Interaction_Design-cuate_1_" data-name="Interaction Design-cuate (1)" transform="translate(-35.07 -37.73)">
    <g id="freepik--background-complete--inject-9" transform="translate(36.013 37.73)">
      <path id="Path_1463" data-name="Path 1463" d="M39.971,39.912,37.249,44.3l1.345.832a1.239,1.239,0,0,1,.569,1.156,7.137,7.137,0,0,0-.028.772,1.22,1.22,0,0,1-.638,1.114l-1.387.744,2.441,4.553,1.387-.749a1.23,1.23,0,0,1,1.281.083,7.4,7.4,0,0,0,.656.407,1.23,1.23,0,0,1,.656,1.114l-.051,1.581,5.136.157.065-1.567a1.23,1.23,0,0,1,.717-1.068c.116-.051.227-.111.342-.171s.222-.12.328-.185a1.216,1.216,0,0,1,1.281,0l1.354.837,2.723-4.387-1.345-.837a1.216,1.216,0,0,1-.569-1.156,7.082,7.082,0,0,0,0-.767,1.216,1.216,0,0,1,.652-1.137l1.387-.749-2.441-4.549-1.387.744a1.22,1.22,0,0,1-1.257-.083c-.213-.143-.43-.277-.656-.4a1.23,1.23,0,0,1-.647-1.114l.046-1.581L44.04,37.73l-.046,1.586a1.225,1.225,0,0,1-.721,1.063l-.342.171-.328.19a1.234,1.234,0,0,1-1.29,0Zm4.369,3.236a2.564,2.564,0,1,0,0,.023Z" transform="translate(-37.11 -37.73)" fill="#ebebeb"/>
      <path id="Path_1464" data-name="Path 1464" d="M92.872,65l-3.134,1.808.555.966a.855.855,0,0,1-.032.925,4.216,4.216,0,0,0-.268.462.86.86,0,0,1-.767.462h-1.1v3.615h1.1a.864.864,0,0,1,.767.462,4.759,4.759,0,0,0,.268.462.855.855,0,0,1,.032.925l-.555.957,3.134,1.808.55-.962a.869.869,0,0,1,.8-.425h.532a.864.864,0,0,1,.8.421l.559.966,3.13-1.808-.541-.957a.864.864,0,0,1,.032-.9c.1-.153.19-.305.273-.462a.86.86,0,0,1,.763-.462h1.1V69.623h-1.1A.851.851,0,0,1,99,69.161a5.055,5.055,0,0,0-.273-.462.864.864,0,0,1-.032-.925l.555-.962L96.108,65l-.555.962a.855.855,0,0,1-.8.421h-.536a.864.864,0,0,1-.8-.421Zm1.618,3.458a2.956,2.956,0,1,0,0,.014Z" transform="translate(-64.539 -52.394)" fill="#ebebeb"/>
      <path id="Path_1465" data-name="Path 1465" d="M435.13,293.848l1.808,3.13.957-.555a.855.855,0,0,1,.9.032,5.27,5.27,0,0,0,.462.268.86.86,0,0,1,.462.767v1.1h3.62v-1.114a.86.86,0,0,1,.462-.767,4.692,4.692,0,0,0,.462-.268.855.855,0,0,1,.9-.032l.957.555,1.808-3.13-.962-.555a.865.865,0,0,1-.421-.8c0-.088,0-.176,0-.268v-.264a.86.86,0,0,1,.416-.8l.966-.559-1.766-3.12-.962.555a.864.864,0,0,1-.925-.032,5.142,5.142,0,0,0-.462-.273.855.855,0,0,1-.462-.763v-1.1h-3.615v1.1a.855.855,0,0,1-.462.763,5.153,5.153,0,0,0-.462.273.864.864,0,0,1-.9.032l-.962-.555-1.808,3.13.962.555a.864.864,0,0,1,.421.8v.536a.874.874,0,0,1-.421.8Zm3.458-1.623a2.958,2.958,0,1,1,.863,2.1,2.963,2.963,0,0,1-.863-2.1Z" transform="translate(-251.134 -171.155)" fill="#ebebeb"/>
      <path id="Path_1466" data-name="Path 1466" d="M41.215,352.119h59.222l1.9-37.579H39.31Z" transform="translate(-38.293 -186.577)" fill="#ebebeb"/>
      <path id="Path_1467" data-name="Path 1467" d="M100.645,336.576H48.491L47.77,323.53H101.5Zm-51.72-.462h51.285l.781-12.121H48.26Z" transform="translate(-42.842 -191.411)" fill="#dbdbdb"/>
      <path id="Path_1468" data-name="Path 1468" d="M101.869,370.519H51.942L51.36,358.74h51.267Zm-49.51-.462h49.075l.68-10.854H51.822Z" transform="translate(-44.773 -210.344)" fill="#dbdbdb"/>
      <path id="Path_1469" data-name="Path 1469" d="M105.38,337.044H94.327L93.92,333.9h11.867Zm-10.632-.462h10.244l.287-2.219H94.447Z" transform="translate(-67.658 -196.987)" fill="#dbdbdb"/>
      <path id="Path_1470" data-name="Path 1470" d="M105.38,371.224H94.327l-.407-3.144h11.867Zm-10.632-.462h10.244l.287-2.219H94.447Z" transform="translate(-67.658 -215.366)" fill="#dbdbdb"/>
      <path id="Path_1471" data-name="Path 1471" d="M56.554,395.83l-.573,4.1-1.16,8.224H52.56V395.83Z" transform="translate(-45.418 -230.288)" fill="#ebebeb"/>
      <path id="Path_1472" data-name="Path 1472" d="M56.554,395.83l-.573,4.1H52.56v-4.1Z" transform="translate(-45.418 -230.288)" fill="#dbdbdb"/>
      <path id="Path_1473" data-name="Path 1473" d="M153.78,395.83l.573,4.1,1.156,8.224h2.261V395.83Z" transform="translate(-99.846 -230.288)" fill="#ebebeb"/>
      <path id="Path_1474" data-name="Path 1474" d="M153.78,395.83l.573,4.1h3.416v-4.1Z" transform="translate(-99.846 -230.288)" fill="#dbdbdb"/>
    </g>
    <g id="freepik--Shadow--inject-9" transform="translate(36.008 220.672)">
      <ellipse id="Ellipse_715" data-name="Ellipse 715" cx="84.689" cy="8.529" rx="84.689" ry="8.529" transform="translate(0 0)" fill="#ebebeb"/>
    </g>
    <g id="freepik--Floor--inject-9" transform="translate(35.07 215.36)">
      <path id="Path_1475" data-name="Path 1475" d="M35.07,422.211l24.838-.111,24.838-.042,49.681-.079,49.681.079,24.838.037,24.838.116-24.838.111-24.838.042-49.681.079-49.681-.079-24.838-.042Z" transform="translate(-35.07 -421.98)" fill="#263238"/>
    </g>
    <g id="freepik--Screens--inject-9" transform="translate(47.797 46.981)">
      <path id="Path_1476" data-name="Path 1476" d="M367.008,81.7V188.6a5.266,5.266,0,0,1-5.053,5.464H312.085A5.28,5.28,0,0,1,307,188.6V81.7c0-6.158,2.261-6.472,5.057-6.472h10c.578,0,1.054.661,1.054,1.479v.351c0,1.918,1.049,1.923,2.335,1.923h23.114c1.3,0,2.344,0,2.344-1.923v-.351c0-.818.462-1.479,1.059-1.479h9.99C364.748,75.244,367.008,76.048,367.008,81.7Z" transform="translate(-194.019 -67.146)" fill="#fff"/>
      <path id="Path_1477" data-name="Path 1477" d="M366.7,81.36h0a15.254,15.254,0,0,0-.24-2.774,5.372,5.372,0,0,0-1.2-2.593,4.11,4.11,0,0,0-2.6-1.23,10.913,10.913,0,0,0-1.415-.079h-9.675a1.146,1.146,0,0,0-.827.24,1.534,1.534,0,0,0-.462.652,2.565,2.565,0,0,0-.166,1.091v.361a1.507,1.507,0,0,1-.393,1.082,1.817,1.817,0,0,1-1.133.314H324.819a4.624,4.624,0,0,1-1.086-.083.957.957,0,0,1-.74-.7,3.394,3.394,0,0,1-.106-1.054v-.236a1.9,1.9,0,0,0-.707-1.516,1.151,1.151,0,0,0-.407-.2,1.082,1.082,0,0,0-.351-.037h-9.56a12.56,12.56,0,0,0-2.339.139,4.2,4.2,0,0,0-1.387.541,3.574,3.574,0,0,0-1.031,1.1,3.443,3.443,0,0,0-.24.462l-.1.213-.079.231a4.525,4.525,0,0,0-.153.462l-.162.7-.106.693a23.072,23.072,0,0,0-.129,2.806L306,184.379v4.161a6.516,6.516,0,0,0,.236,1.475,5.7,5.7,0,0,0,4.1,4.017,6.375,6.375,0,0,0,1.317.134h.157l48.461-.065h1.41a5.126,5.126,0,0,0,1.461-.3,5.671,5.671,0,0,0,1.322-.707,5.588,5.588,0,0,0,1.054-1.022,6.037,6.037,0,0,0,1.211-2.667,8.154,8.154,0,0,0,.1-1.442Zm-.693,107.91a5.289,5.289,0,0,1-1.068,2.311,5.084,5.084,0,0,1-.925.883,4.737,4.737,0,0,1-1.142.6,5.764,5.764,0,0,1-2.187.259l-48.872-.065a5.335,5.335,0,0,1-1.271-.116,4.794,4.794,0,0,1-3.425-3.388,5.848,5.848,0,0,1-.194-1.253v-4.128L306.79,81.919a22.425,22.425,0,0,1,.12-2.723,6.472,6.472,0,0,1,.744-2.506,2.916,2.916,0,0,1,.837-.9,3.454,3.454,0,0,1,1.17-.462,12.334,12.334,0,0,1,2.228-.134h9.486a.624.624,0,0,1,.462.111,1.322,1.322,0,0,1,.439.989v.227a3.981,3.981,0,0,0,.139,1.225,1.632,1.632,0,0,0,.435.717,1.7,1.7,0,0,0,.744.379,5.086,5.086,0,0,0,1.2.1h23.8a2.311,2.311,0,0,0,1.465-.462,2.034,2.034,0,0,0,.564-1.442v-.393a2.312,2.312,0,0,1,.125-.9.809.809,0,0,1,.809-.573h9.708a9.892,9.892,0,0,1,1.35.069,3.61,3.61,0,0,1,2.311,1.068,4.881,4.881,0,0,1,1.091,2.367,14.639,14.639,0,0,1,.24,2.709L366.1,186.574v.818a9.957,9.957,0,0,1-.088,1.877Z" transform="translate(-193.482 -66.804)" fill="#dbdbdb"/>
      <g id="freepik--u5Zjqx--inject-9" transform="translate(124.163 9.995)">
        <path id="Path_1478" data-name="Path 1478" d="M333.34,79.773l-.1.1-.055.055a1.285,1.285,0,0,0-.925-.388,1.3,1.3,0,0,0-.925.388l-.051-.055-.1-.092h0l.125-.106a1.464,1.464,0,0,1,.282-.18,1.275,1.275,0,0,1,.374-.125,1.262,1.262,0,0,1,.185,0h.291a1.424,1.424,0,0,1,.342.083,1.36,1.36,0,0,1,.236.106,1.483,1.483,0,0,1,.222.157l.1.092Z" transform="translate(-331.19 -79.363)" fill="#a6a6a6"/>
        <path id="Path_1479" data-name="Path 1479" d="M331.963,80.68l-.153-.148a1.077,1.077,0,0,1,.624-.314,1.1,1.1,0,0,1,.925.31l-.153.153a.888.888,0,0,0-1.253,0Z" transform="translate(-331.523 -79.817)" fill="#a6a6a6"/>
        <path id="Path_1480" data-name="Path 1480" d="M333.423,81.335l-.153.153a.463.463,0,0,0-.643,0l-.148-.148a.666.666,0,0,1,.943,0Z" transform="translate(-331.884 -80.319)" fill="#a6a6a6"/>
        <path id="Path_1481" data-name="Path 1481" d="M333.467,82.029a.139.139,0,1,1-.134-.139A.139.139,0,0,1,333.467,82.029Z" transform="translate(-332.265 -80.722)" fill="#a6a6a6"/>
      </g>
      <path id="Path_1482" data-name="Path 1482" d="M315.47,80.418a.4.4,0,1,1,.4.4A.4.4,0,0,1,315.47,80.418Z" transform="translate(-198.574 -69.722)" fill="#a6a6a6"/>
      <path id="Path_1483" data-name="Path 1483" d="M318.18,80.418a.4.4,0,1,1,.4.4A.4.4,0,0,1,318.18,80.418Z" transform="translate(-200.031 -69.722)" fill="#a6a6a6"/>
      <path id="Path_1484" data-name="Path 1484" d="M320.89,80.418a.4.4,0,1,1,.4.4A.4.4,0,0,1,320.89,80.418Z" transform="translate(-201.488 -69.722)" fill="#a6a6a6"/>
      <path id="Path_1485" data-name="Path 1485" d="M323.6,80.418a.4.4,0,1,1,.4.4A.4.4,0,0,1,323.6,80.418Z" transform="translate(-202.945 -69.722)" fill="#a6a6a6"/>
      <path id="Path_1486" data-name="Path 1486" d="M326.31,80.418a.4.4,0,1,1,.4.4A.4.4,0,0,1,326.31,80.418Z" transform="translate(-204.403 -69.722)" fill="#a6a6a6"/>
      <path id="Path_1487" data-name="Path 1487" d="M423.306,81.018H420.07v-1.5h3.236Zm-3.07-.166h2.9v-1.17h-2.9Z" transform="translate(-254.819 -69.453)" fill="#a6a6a6"/>
      <rect id="Rectangle_614" data-name="Rectangle 614" width="2.085" height="0.989" transform="translate(165.519 10.322)" fill="#a6a6a6"/>
      <rect id="Rectangle_615" data-name="Rectangle 615" width="0.287" height="0.804" transform="translate(168.491 10.414)" fill="#a6a6a6"/>
      <path id="Path_1488" data-name="Path 1488" d="M361.237,316.914a.874.874,0,1,1-.874-.874A.874.874,0,0,1,361.237,316.914Z" transform="translate(-222.244 -196.635)" fill="#dbdbdb"/>
      <path id="Path_1489" data-name="Path 1489" d="M382.224,316.4a1.322,1.322,0,1,1-1.322-1.318A1.322,1.322,0,0,1,382.224,316.4Z" transform="translate(-233.047 -196.118)" fill="#519259"/>
      <path id="Path_1490" data-name="Path 1490" d="M371.767,316.914a.874.874,0,1,1-.874-.874A.874.874,0,0,1,371.767,316.914Z" transform="translate(-227.906 -196.635)" fill="#dbdbdb"/>
      <path id="Path_1491" data-name="Path 1491" d="M320.413,106.218a2.15,2.15,0,0,1-.606.254,2.076,2.076,0,0,1-1.6-.259,2.1,2.1,0,1,1,2.21,0Z" transform="translate(-199.509 -81.718)" fill="#ebebeb"/>
      <path id="Path_1492" data-name="Path 1492" d="M321.646,105.6a.638.638,0,1,1-.185-.454A.638.638,0,0,1,321.646,105.6Z" transform="translate(-201.209 -83.132)" fill="#fff"/>
      <path id="Path_1493" data-name="Path 1493" d="M321.57,108.885v.263a2.15,2.15,0,0,1-.606.254,2.075,2.075,0,0,1-1.6-.259v-.259a1.1,1.1,0,1,1,2.21,0Z" transform="translate(-200.665 -84.649)" fill="#fff"/>
      <rect id="Rectangle_616" data-name="Rectangle 616" width="4.234" height="0.832" transform="translate(163.854 20.607)" fill="#ebebeb"/>
      <rect id="Rectangle_617" data-name="Rectangle 617" width="4.234" height="0.832" transform="translate(163.854 22.295)" fill="#ebebeb"/>
      <rect id="Rectangle_618" data-name="Rectangle 618" width="4.234" height="0.832" transform="translate(163.854 23.977)" fill="#ebebeb"/>
      <rect id="Rectangle_619" data-name="Rectangle 619" width="50.393" height="66.013" transform="translate(117.696 30.717)" fill="#ebebeb"/>
      <path id="Path_1494" data-name="Path 1494" d="M366.252,284.235a4.687,4.687,0,1,1,4.683-4.687A4.687,4.687,0,0,1,366.252,284.235Zm0-8.58a3.892,3.892,0,1,0,3.892,3.892A3.892,3.892,0,0,0,366.252,275.655Z" transform="translate(-223.357 -174.491)" fill="#519259"/>
      <path id="Path_1495" data-name="Path 1495" d="M371.246,281.628a2.9,2.9,0,1,1-2.9-2.9,2.9,2.9,0,0,1,2.9,2.9Z" transform="translate(-225.444 -176.572)" fill="#519259"/>
      <path id="Path_1496" data-name="Path 1496" d="M321.416,282.76a.3.3,0,0,1-.148-.282v-.19a.3.3,0,0,1,.148-.282l.342-.2-.643-1.109-.342.194a.305.305,0,0,1-.319,0,.978.978,0,0,0-.166-.1.305.305,0,0,1-.166-.273v-.393h-1.285v.4a.305.305,0,0,1-.166.273.978.978,0,0,0-.166.1.305.305,0,0,1-.319,0l-.342-.194-.643,1.109.342.2a.291.291,0,0,1,.148.282v.19a.291.291,0,0,1-.148.282l-.342.2.643,1.109.337-.194a.305.305,0,0,1,.324,0l.166.1a.3.3,0,0,1,.166.268v.393h1.285v-.411a.3.3,0,0,1,.166-.268l.166-.1a.3.3,0,0,1,.319,0l.342.194.643-1.109Zm-1.937.675a1.049,1.049,0,1,1,.744-.309A1.054,1.054,0,0,1,319.479,283.435Z" transform="translate(-199.504 -177.325)" fill="#519259"/>
      <path id="Path_1497" data-name="Path 1497" d="M420.145,284.631H414.93V280.11h5.215Zm-4.877-.337h4.54v-3.842h-4.54Z" transform="translate(-252.056 -177.314)" fill="#519259"/>
      <path id="Path_1498" data-name="Path 1498" d="M415.3,287.949l1.415-1.359L418,287.949Z" transform="translate(-252.255 -180.799)" fill="#519259"/>
      <path id="Path_1499" data-name="Path 1499" d="M419.23,287.056l1.678-2.126,1.378,2.126Z" transform="translate(-254.368 -179.906)" fill="#519259"/>
      <path id="Path_1500" data-name="Path 1500" d="M418.128,284.079a.5.5,0,1,1-.5-.5.5.5,0,0,1,.5.5Z" transform="translate(-253.233 -179.18)" fill="#519259"/>
      <path id="Path_1501" data-name="Path 1501" d="M353.47,124.19l.055,33.007L353.47,190.2l-.06-33.007Z" transform="translate(-218.975 -93.473)" fill="#fff"/>
      <path id="Path_1502" data-name="Path 1502" d="M389.805,124.19l.06,33.007-.06,33.007L389.75,157.2Z" transform="translate(-238.516 -93.473)" fill="#fff"/>
      <path id="Path_1503" data-name="Path 1503" d="M367.593,171.72l-25.2.055L317.2,171.72l25.194-.06Z" transform="translate(-199.504 -118.998)" fill="#fff"/>
      <path id="Path_1504" data-name="Path 1504" d="M367.593,219.32l-25.2.055L317.2,219.32l25.194-.06Z" transform="translate(-199.504 -144.594)" fill="#fff"/>
      <path id="Path_1505" data-name="Path 1505" d="M123.6,81.7V188.6a5.266,5.266,0,0,1-5.053,5.464H68.657A5.267,5.267,0,0,1,63.6,188.6V81.7c0-6.158,2.261-6.472,5.057-6.472h10c.578,0,1.054.661,1.054,1.479v.351c0,1.918,1.049,1.923,2.311,1.923h23.114c1.3,0,2.339,0,2.339-1.923v-.351c0-.818.462-1.479,1.059-1.479h9.994C121.343,75.244,123.6,76.048,123.6,81.7Z" transform="translate(-63.138 -67.146)" fill="#fff"/>
      <path id="Path_1506" data-name="Path 1506" d="M123.3,81.392h0a15.311,15.311,0,0,0-.24-2.774,5.335,5.335,0,0,0-1.2-2.593,4.082,4.082,0,0,0-2.593-1.23,10.962,10.962,0,0,0-1.415-.079h-9.675a1.174,1.174,0,0,0-.827.24,1.535,1.535,0,0,0-.462.652,2.566,2.566,0,0,0-.18,1.054c0,.12,0,.24,0,.365a1.5,1.5,0,0,1-.393,1.077,1.817,1.817,0,0,1-1.133.314H81.4a4.623,4.623,0,0,1-1.082-.083.957.957,0,0,1-.74-.7,3.375,3.375,0,0,1-.106-1.054v-.236A1.9,1.9,0,0,0,78.8,74.9a1.109,1.109,0,0,0-.407-.2,1.1,1.1,0,0,0-.351-.037H68.48a12.56,12.56,0,0,0-2.339.139,4.2,4.2,0,0,0-1.387.541A3.573,3.573,0,0,0,63.709,76.4a3.7,3.7,0,0,0-.24.462l-.1.217-.079.227c-.055.148-.106.3-.153.462l-.162.7-.106.693a23.035,23.035,0,0,0-.129,2.806L62.6,184.411v4.184a6.518,6.518,0,0,0,.236,1.475,5.7,5.7,0,0,0,4.11,4.013,6.375,6.375,0,0,0,1.317.134h.157l48.451-.074h1.387a5.127,5.127,0,0,0,1.461-.3,5.672,5.672,0,0,0,1.322-.707,5.589,5.589,0,0,0,1.054-1.022,6.088,6.088,0,0,0,1.248-2.658,8.155,8.155,0,0,0,.1-1.442ZM122.6,189.3a5.289,5.289,0,0,1-1.068,2.311,5.085,5.085,0,0,1-.925.883,4.738,4.738,0,0,1-1.142.6,5.779,5.779,0,0,1-2.191.259l-48.854-.042a5.358,5.358,0,0,1-1.271-.116,4.794,4.794,0,0,1-3.444-3.388,5.889,5.889,0,0,1-.2-1.271v-4.128L63.39,81.956a22.42,22.42,0,0,1,.12-2.723,6.32,6.32,0,0,1,.744-2.506,2.862,2.862,0,0,1,.841-.9,3.453,3.453,0,0,1,1.17-.462,12.31,12.31,0,0,1,2.228-.134H77.98a.624.624,0,0,1,.462.111,1.3,1.3,0,0,1,.435.989v.231a3.966,3.966,0,0,0,.139,1.22,1.59,1.59,0,0,0,.411.726,1.7,1.7,0,0,0,.744.379,4.868,4.868,0,0,0,1.2.1h.25l20.789-.014h2.778a2.311,2.311,0,0,0,1.465-.462,2.016,2.016,0,0,0,.559-1.442c0-.129,0-.264,0-.4a2.2,2.2,0,0,1,.125-.892.8.8,0,0,1,.809-.573h9.708a9.018,9.018,0,0,1,1.35.069,3.61,3.61,0,0,1,2.311,1.068,4.882,4.882,0,0,1,1.091,2.367,15.047,15.047,0,0,1,.24,2.709l-.134,105.215v.818a9.937,9.937,0,0,1-.106,1.849Z" transform="translate(-62.6 -66.836)" fill="#dbdbdb"/>
      <g id="freepik--u5zjqx--inject-9-2" data-name="freepik--u5zjqx--inject-9" transform="translate(11.645 9.981)">
        <path id="Path_1507" data-name="Path 1507" d="M89.935,79.757l-.1.1-.055.055a1.313,1.313,0,0,0-1.849,0l-.046-.055-.1-.092h0l.1-.12a1.465,1.465,0,0,1,.282-.18.906.906,0,0,1,.559-.125h.291a1.424,1.424,0,0,1,.342.083,1.535,1.535,0,0,1,.236.106,1.244,1.244,0,0,1,.217.157l.106.092Z" transform="translate(-87.79 -79.333)" fill="#a6a6a6"/>
        <path id="Path_1508" data-name="Path 1508" d="M88.553,80.68l-.153-.148a1.077,1.077,0,0,1,.624-.314,1.1,1.1,0,0,1,.925.31l-.153.153a.888.888,0,0,0-1.253,0Z" transform="translate(-88.118 -79.803)" fill="#a6a6a6"/>
        <path id="Path_1509" data-name="Path 1509" d="M90.013,81.335l-.153.153a.462.462,0,0,0-.643,0c-.051-.051-.1-.1-.148-.148a.666.666,0,0,1,.943,0Z" transform="translate(-88.478 -80.305)" fill="#a6a6a6"/>
        <path id="Path_1510" data-name="Path 1510" d="M90.057,82.029a.139.139,0,1,1-.134-.139.139.139,0,0,1,.134.139Z" transform="translate(-88.86 -80.708)" fill="#a6a6a6"/>
      </g>
      <path id="Path_1511" data-name="Path 1511" d="M72.06,80.418a.4.4,0,1,1,.4.4A.4.4,0,0,1,72.06,80.418Z" transform="translate(-67.687 -69.722)" fill="#a6a6a6"/>
      <path id="Path_1512" data-name="Path 1512" d="M74.77,80.418a.4.4,0,1,1,.4.4A.4.4,0,0,1,74.77,80.418Z" transform="translate(-69.144 -69.722)" fill="#a6a6a6"/>
      <path id="Path_1513" data-name="Path 1513" d="M77.48,80.418a.4.4,0,1,1,.4.4A.4.4,0,0,1,77.48,80.418Z" transform="translate(-70.601 -69.722)" fill="#a6a6a6"/>
      <path id="Path_1514" data-name="Path 1514" d="M80.19,80.418a.4.4,0,1,1,.4.4A.4.4,0,0,1,80.19,80.418Z" transform="translate(-72.059 -69.722)" fill="#a6a6a6"/>
      <path id="Path_1515" data-name="Path 1515" d="M82.89,80.407a.4.4,0,1,1,.4.4.4.4,0,0,1-.4-.4Z" transform="translate(-73.51 -69.711)" fill="#a6a6a6"/>
      <path id="Path_1516" data-name="Path 1516" d="M179.9,81.018H176.66v-1.5H179.9Zm-3.079-.166h2.908v-1.17h-2.908Z" transform="translate(-123.933 -69.453)" fill="#a6a6a6"/>
      <rect id="Rectangle_620" data-name="Rectangle 620" width="2.085" height="0.989" transform="translate(52.996 10.322)" fill="#a6a6a6"/>
      <rect id="Rectangle_621" data-name="Rectangle 621" width="0.287" height="0.804" transform="translate(55.963 10.414)" fill="#a6a6a6"/>
      <path id="Path_1517" data-name="Path 1517" d="M117.754,316.4a1.322,1.322,0,1,1-1.322-1.318A1.322,1.322,0,0,1,117.754,316.4Z" transform="translate(-90.836 -196.118)" fill="#519259"/>
      <path id="Path_1518" data-name="Path 1518" d="M138.888,316.892a.874.874,0,1,1-.254-.635A.874.874,0,0,1,138.888,316.892Z" transform="translate(-102.682 -196.613)" fill="#dbdbdb"/>
      <path id="Path_1519" data-name="Path 1519" d="M128.358,316.892a.874.874,0,1,1-.249-.63.874.874,0,0,1,.249.63Z" transform="translate(-97.02 -196.613)" fill="#dbdbdb"/>
      <rect id="Rectangle_622" data-name="Rectangle 622" width="45.192" height="7.359" transform="translate(7.674 87.332)" fill="#519259"/>
      <path id="Path_1520" data-name="Path 1520" d="M118.78,254.44V252.43a.185.185,0,0,1,.185-.19.189.189,0,0,1,.19.189v1.817h.925a.2.2,0,0,1,.19.194.194.194,0,0,1-.19.185h-1.114a.18.18,0,0,1-.185-.185Z" transform="translate(-92.809 -162.328)" fill="#fff"/>
      <path id="Path_1521" data-name="Path 1521" d="M122.836,255.176a.855.855,0,0,1-.236-.6.869.869,0,0,1,.236-.6.79.79,0,0,1,.587-.259.758.758,0,0,1,.569.259.851.851,0,0,1,.236.6.837.837,0,0,1-.236.6.772.772,0,0,1-.569.259A.809.809,0,0,1,122.836,255.176Zm.134-.6a.559.559,0,0,0,.125.361.462.462,0,0,0,.328.125.434.434,0,0,0,.31-.125.518.518,0,0,0,.134-.361.508.508,0,0,0-.134-.356.462.462,0,0,0-.31-.129.5.5,0,0,0-.328.129A.545.545,0,0,0,122.97,254.575Z" transform="translate(-94.863 -163.124)" fill="#fff"/>
      <path id="Path_1522" data-name="Path 1522" d="M128.793,254.552v.656a.818.818,0,0,1-.818.818.762.762,0,0,1-.356-.083.18.18,0,0,1-.06-.273.185.185,0,0,1,.245-.088.393.393,0,0,0,.194.051.462.462,0,0,0,.462-.365.814.814,0,0,1-.462.134.767.767,0,0,1-.578-.259.841.841,0,0,1-.24-.6.924.924,0,0,1,.24-.61.8.8,0,0,1,1.035-.106.181.181,0,0,1,.361.037v.68Zm-.365,0a.541.541,0,0,0-.129-.351.43.43,0,0,0-.324-.143.421.421,0,0,0-.314.143.5.5,0,0,0-.134.351.462.462,0,0,0,.134.347.421.421,0,0,0,.314.143.43.43,0,0,0,.324-.143A.513.513,0,0,0,128.428,254.552Z" transform="translate(-97.326 -163.096)" fill="#fff"/>
      <path id="Path_1523" data-name="Path 1523" d="M132.57,252.5a.18.18,0,0,1-.185.185.185.185,0,0,1-.185-.185v-.074a.185.185,0,0,1,.185-.185.18.18,0,0,1,.185.185Zm0,.615v1.327a.185.185,0,1,1-.37,0v-1.327a.185.185,0,1,1,.37,0Z" transform="translate(-100.025 -162.328)" fill="#fff"/>
      <path id="Path_1524" data-name="Path 1524" d="M135.734,254.422v.809a.176.176,0,0,1-.176.18.18.18,0,0,1-.18-.18v-.814a.351.351,0,0,0-.356-.342.342.342,0,0,0-.342.342v.814a.1.1,0,0,1,0,.037.19.19,0,0,1-.18.143.176.176,0,0,1-.18-.18V253.89a.18.18,0,0,1,.18-.18.19.19,0,0,1,.166.106.675.675,0,0,1,.361-.106.712.712,0,0,1,.707.712Z" transform="translate(-101.165 -163.118)" fill="#fff"/>
      <path id="Path_1525" data-name="Path 1525" d="M124.359,277.921H78.82V270.21h45.539Zm-45.192-.347h44.841v-7H79.167Z" transform="translate(-71.322 -171.991)" fill="#519259"/>
      <path id="Path_1526" data-name="Path 1526" d="M100.61,277.255a1.248,1.248,0,0,1,1.248-1.225,1.29,1.29,0,0,1,.79.264.208.208,0,0,1,.032.273.2.2,0,0,1-.273.042.837.837,0,0,0-.55-.19.925.925,0,0,0-.61.245.846.846,0,0,0-.25.592.828.828,0,0,0,.254.61.887.887,0,0,0,.61.25.846.846,0,0,0,.55-.19.2.2,0,0,1,.24.31,1.294,1.294,0,0,1-.79.268,1.248,1.248,0,0,1-1.253-1.248Z" transform="translate(-83.039 -175.12)" fill="#519259"/>
      <path id="Path_1527" data-name="Path 1527" d="M107.489,277.769a.18.18,0,0,1-.18.18.356.356,0,0,0-.208.065.462.462,0,0,0-.153.166,1.058,1.058,0,0,0-.143.282v.693a.185.185,0,0,1-.185.18.18.18,0,0,1-.18-.18v-1.387a.176.176,0,0,1,.18-.176.18.18,0,0,1,.185.176h0a.461.461,0,0,1,.074-.065.712.712,0,0,1,.43-.134.176.176,0,0,1,.18.2Z" transform="translate(-86.174 -175.948)" fill="#519259"/>
      <path id="Path_1528" data-name="Path 1528" d="M109.05,278.5a.837.837,0,0,1,.827-.851.818.818,0,0,1,.823.79h0v.028a.162.162,0,0,1-.176.139h-1.082a.411.411,0,0,0,.116.227.541.541,0,0,0,.68.065.19.19,0,0,1,.254,0,.153.153,0,0,1,0,.222.86.86,0,0,1-.61.227A.841.841,0,0,1,109.05,278.5Zm.37-.166h.966a.564.564,0,0,0-.508-.361A.462.462,0,0,0,109.42,278.334Z" transform="translate(-87.577 -175.991)" fill="#519259"/>
      <path id="Path_1529" data-name="Path 1529" d="M115.012,278.532v.693a.185.185,0,0,1-.18.18.189.189,0,0,1-.18-.148.772.772,0,0,1-.462.148.8.8,0,0,1-.578-.25.9.9,0,0,1,0-1.2.781.781,0,0,1,.578-.254.772.772,0,0,1,.462.153.19.19,0,0,1,.18-.153.185.185,0,0,1,.18.185Zm-.361,0a.5.5,0,0,0-.134-.351.425.425,0,0,0-.319-.139.407.407,0,0,0-.314.139.542.542,0,0,0,0,.7.435.435,0,0,0,.314.134.462.462,0,0,0,.319-.134A.509.509,0,0,0,114.651,278.532Z" transform="translate(-89.906 -176.018)" fill="#519259"/>
      <path id="Path_1530" data-name="Path 1530" d="M118.937,277.049a.19.19,0,0,1-.19.185h-.088v.952a.19.19,0,1,1,0,.379.379.379,0,0,1-.374-.379v-.952h-.1a.19.19,0,0,1,0-.374h.1v-.495a.185.185,0,0,1,.19-.185.18.18,0,0,1,.185.185v.495h.088A.19.19,0,0,1,118.937,277.049Z" transform="translate(-92.403 -175.201)" fill="#519259"/>
      <path id="Path_1531" data-name="Path 1531" d="M120.75,278.5a.837.837,0,0,1,.827-.851.818.818,0,0,1,.823.79h0v.028a.162.162,0,0,1-.176.139h-1.082a.411.411,0,0,0,.116.227.541.541,0,0,0,.68.065.19.19,0,0,1,.254,0,.153.153,0,0,1,0,.222.86.86,0,0,1-.61.227A.841.841,0,0,1,120.75,278.5Zm.37-.166h.966a.564.564,0,0,0-.509-.361A.462.462,0,0,0,121.12,278.334Z" transform="translate(-93.868 -175.991)" fill="#519259"/>
      <path id="Path_1532" data-name="Path 1532" d="M128.829,278.039H128l-.166.462a.19.19,0,0,1-.176.12.148.148,0,0,1-.065,0,.185.185,0,0,1-.111-.245l.749-2.006a.2.2,0,0,1,.365,0l.749,2.006a.19.19,0,0,1-.111.245.148.148,0,0,1-.065,0,.18.18,0,0,1-.171-.12Zm-.139-.374-.273-.735-.277.735Z" transform="translate(-97.482 -175.239)" fill="#519259"/>
      <path id="Path_1533" data-name="Path 1533" d="M132,278.521a.864.864,0,0,1,1.387-.666.185.185,0,0,1,.037.25.18.18,0,0,1-.254.037.546.546,0,0,0-.324-.111.49.49,0,1,0,0,.975.541.541,0,0,0,.324-.106.18.18,0,0,1,.254.037.189.189,0,0,1-.037.254.957.957,0,0,1-.541.18A.864.864,0,0,1,132,278.521Z" transform="translate(-99.918 -176.007)" fill="#519259"/>
      <path id="Path_1534" data-name="Path 1534" d="M136.12,278.505a.869.869,0,0,1,.864-.855.883.883,0,0,1,.541.19.185.185,0,0,1,.037.25.18.18,0,0,1-.254.037.546.546,0,0,0-.324-.111.49.49,0,1,0,0,.975.555.555,0,0,0,.324-.106.18.18,0,0,1,.254.037.189.189,0,0,1-.037.254.97.97,0,0,1-.541.18.864.864,0,0,1-.864-.851Z" transform="translate(-102.133 -175.992)" fill="#519259"/>
      <path id="Path_1535" data-name="Path 1535" d="M140.536,279.106a.851.851,0,0,1-.236-.6.869.869,0,0,1,.236-.6.791.791,0,0,1,.587-.259.749.749,0,0,1,.569.259.851.851,0,0,1,.236.6.832.832,0,0,1-.236.6.767.767,0,0,1-.569.259A.809.809,0,0,1,140.536,279.106Zm.134-.6a.541.541,0,0,0,.125.361.476.476,0,0,0,.643,0,.559.559,0,0,0,0-.717.463.463,0,0,0-.643,0,.546.546,0,0,0-.125.356Z" transform="translate(-104.381 -175.992)" fill="#519259"/>
      <path id="Path_1536" data-name="Path 1536" d="M145.592,279.334a.717.717,0,0,1-.712-.712v-.832a.185.185,0,0,1,.185-.18.18.18,0,0,1,.18.18v.814a.342.342,0,0,0,.347.347.351.351,0,0,0,.356-.347v-.814a.176.176,0,0,1,.176-.18.189.189,0,0,1,.185.18v.814a.721.721,0,0,1-.717.73Z" transform="translate(-106.844 -175.97)" fill="#519259"/>
      <path id="Path_1537" data-name="Path 1537" d="M150.725,278.336v.841a.18.18,0,0,1-.176.18.185.185,0,0,1-.18-.18v-.818a.351.351,0,0,0-.356-.342.342.342,0,0,0-.342.342v.818a.092.092,0,0,1,0,.032.19.19,0,0,1-.18.148.18.18,0,0,1-.18-.18V277.79a.18.18,0,0,1,.18-.18.19.19,0,0,1,.166.106.675.675,0,0,1,.361-.106.712.712,0,0,1,.707.726Z" transform="translate(-109.226 -175.97)" fill="#519259"/>
      <path id="Path_1538" data-name="Path 1538" d="M154.407,277.044a.19.19,0,0,1-.19.185h-.083v.952a.19.19,0,0,1,0,.379.379.379,0,0,1-.379-.379v-.952h-.1a.19.19,0,0,1,0-.374h.1v-.495a.19.19,0,0,1,.379,0v.495h.083A.19.19,0,0,1,154.407,277.044Z" transform="translate(-111.476 -175.196)" fill="#519259"/>
      <rect id="Rectangle_623" data-name="Rectangle 623" width="34.745" height="34.745" transform="translate(12.893 33.986)" fill="#519259"/>
      <path id="Path_1539" data-name="Path 1539" d="M114.708,166.952a11.506,11.506,0,1,1,11.525-11.506A11.506,11.506,0,0,1,114.708,166.952Zm0-21.061a9.56,9.56,0,1,0,9.56,9.555A9.56,9.56,0,0,0,114.708,145.891Z" transform="translate(-84.442 -104.093)" fill="#fff"/>
      <circle id="Ellipse_716" data-name="Ellipse 716" cx="7.637" cy="7.637" r="7.637" transform="matrix(0.231, -0.973, 0.973, 0.231, 21.071, 57.023)" fill="#fff"/>
      <path id="Path_1540" data-name="Path 1540" d="M133.534,159.942a2.552,2.552,0,1,1-2.552-2.552A2.552,2.552,0,0,1,133.534,159.942Z" transform="translate(-97.998 -111.325)" fill="#519259"/>
      <rect id="Rectangle_624" data-name="Rectangle 624" width="1.946" height="16.212" transform="translate(29.58 52.043) rotate(-45)" fill="#fff"/>
      <path id="Path_1541" data-name="Path 1541" d="M111.822,217.477a1.636,1.636,0,0,1-.989.379h0a2.122,2.122,0,0,1-1.1-.361.758.758,0,0,0-.365-.088,1.008,1.008,0,0,0-.425.1.328.328,0,0,1-.351,0h-.032a.412.412,0,0,1-.083-.139.342.342,0,0,1,.162-.462h0a2.5,2.5,0,0,1-.666-.462,2.344,2.344,0,0,1-.6-1.572,2.284,2.284,0,0,1,.6-1.549,2.02,2.02,0,0,1,1.5-.666,1.983,1.983,0,0,1,1.475.619,2.228,2.228,0,0,1,.61,1.549,2.284,2.284,0,0,1-.61,1.572,2.4,2.4,0,0,1-.67.462l-.139.055a1.48,1.48,0,0,0,.675.217.888.888,0,0,0,.587-.231.351.351,0,1,1,.421.559Zm-3.342-1.562a1.294,1.294,0,0,0,.975.435,1.387,1.387,0,0,0,.994-.435,1.553,1.553,0,0,0,.411-1.082,1.512,1.512,0,0,0-.411-1.068,1.35,1.35,0,0,0-.994-.462,1.28,1.28,0,0,0-.975.462,1.516,1.516,0,0,0-.416,1.068,1.558,1.558,0,0,0,.411,1.082Z" transform="translate(-86.674 -141.045)" fill="#519259"/>
      <path id="Path_1542" data-name="Path 1542" d="M120.528,216.885a1.738,1.738,0,0,1-1.738-1.738v-2.14a.328.328,0,0,1,.333-.328.333.333,0,0,1,.337.328v2.122a1.068,1.068,0,1,0,2.136,0v-2.14a.333.333,0,0,1,.337-.328.328.328,0,0,1,.333.328v2.14a1.738,1.738,0,0,1-1.738,1.757Z" transform="translate(-92.815 -141.045)" fill="#519259"/>
      <path id="Path_1543" data-name="Path 1543" d="M128.79,213.028a.328.328,0,0,1,.333-.328.333.333,0,0,1,.337.328v3.546a.337.337,0,0,1-.337.333.333.333,0,0,1-.333-.333Z" transform="translate(-98.192 -141.066)" fill="#519259"/>
      <path id="Path_1544" data-name="Path 1544" d="M133.329,216.623a.328.328,0,1,1-.652,0v-3.49h0a.319.319,0,0,1,.129-.277.328.328,0,0,1,.462.074l1.942,2.681v-2.473a.324.324,0,0,1,.324-.324.328.328,0,0,1,.328.324v3.49a.324.324,0,0,1-.573.213l-.032-.037-1.923-2.667Z" transform="translate(-100.281 -141.116)" fill="#519259"/>
      <path id="Path_1545" data-name="Path 1545" d="M144.722,213.366h-.975v3.208a.328.328,0,0,1-.328.333.333.333,0,0,1-.333-.333v-3.208h-.948a.333.333,0,0,1-.328-.337.324.324,0,0,1,.328-.328H144.7a.328.328,0,0,1,.328.328A.337.337,0,0,1,144.722,213.366Z" transform="translate(-105.193 -141.066)" fill="#519259"/>
      <path id="Path_1546" data-name="Path 1546" d="M245.1,65.629V186.621a5.963,5.963,0,0,1-5.718,6.185H182.918a5.97,5.97,0,0,1-5.728-6.185V65.629c0-6.967,2.561-7.309,5.728-7.309H194.23c.656,0,1.193.749,1.193,1.673v.4c0,2.173,1.188,2.177,2.644,2.177h26.16c1.47,0,2.649,0,2.649-2.177v-.4c0-.925.532-1.673,1.2-1.673h11.312C242.542,58.32,245.1,59.245,245.1,65.629Z" transform="translate(-124.218 -58.053)" fill="#fff"/>
      <path id="Path_1547" data-name="Path 1547" d="M244.759,65.318h0a17.689,17.689,0,0,0-.273-3.153,6.07,6.07,0,0,0-1.35-2.917,4.623,4.623,0,0,0-2.922-1.387,12.139,12.139,0,0,0-1.595-.088H227.627a1.674,1.674,0,0,0-.462.042,1.234,1.234,0,0,0-.43.222,1.747,1.747,0,0,0-.532.726,2.81,2.81,0,0,0-.185,1.22V60.4a1.734,1.734,0,0,1-.462,1.244,2.034,2.034,0,0,1-1.3.361h-26.9a5.233,5.233,0,0,1-1.22-.092,1.23,1.23,0,0,1-.559-.282,1.142,1.142,0,0,1-.319-.536,3.906,3.906,0,0,1-.125-1.2v-.268a2.131,2.131,0,0,0-.749-1.613,1.271,1.271,0,0,0-.462-.222,1.484,1.484,0,0,0-.388-.037H182.712a14.178,14.178,0,0,0-2.64.157,4.623,4.623,0,0,0-1.572.606,4.045,4.045,0,0,0-1.156,1.225,4.623,4.623,0,0,0-.268.518l-.116.245-.088.259c-.06.166-.12.333-.171.513l-.185.79-.12.786a26.4,26.4,0,0,0-.143,3.167l-.134,115.953v4.724a7.2,7.2,0,0,0,.268,1.66,6.7,6.7,0,0,0,1.683,2.861,6.01,6.01,0,0,0,2.912,1.641,6.844,6.844,0,0,0,1.475.153h.18l54.909-.129h1.581a5.441,5.441,0,0,0,1.636-.328,6.345,6.345,0,0,0,1.484-.79,6.6,6.6,0,0,0,1.188-1.151,6.823,6.823,0,0,0,1.359-3,8.857,8.857,0,0,0,.116-1.623ZM177.072,185.607v-3.7l-.129-115.949a25.188,25.188,0,0,1,.134-3.083l.111-.749.171-.744c.046-.153.1-.305.153-.462l.079-.236.106-.222a4.082,4.082,0,0,1,.231-.462,3.291,3.291,0,0,1,.962-1.031,3.99,3.99,0,0,1,1.336-.495,14.409,14.409,0,0,1,2.524-.153h10.743a.73.73,0,0,1,.541.134,1.535,1.535,0,0,1,.522,1.142v.259a4.512,4.512,0,0,0,.157,1.387,1.7,1.7,0,0,0,1.3,1.211,5.913,5.913,0,0,0,1.354.111h.277l23.5-.028h3.144a2.529,2.529,0,0,0,1.632-.518,2.311,2.311,0,0,0,.624-1.609v-.462a2.427,2.427,0,0,1,.143-1.022.925.925,0,0,1,.925-.67h10.97a10.508,10.508,0,0,1,1.535.079,4.119,4.119,0,0,1,2.626,1.22,5.519,5.519,0,0,1,1.271,2.69,16.677,16.677,0,0,1,.273,3.07l-.139,120.655a8.159,8.159,0,0,1-.106,1.484,6.1,6.1,0,0,1-1.216,2.663,5.627,5.627,0,0,1-1.045,1.008,5.344,5.344,0,0,1-1.3.689,6.638,6.638,0,0,1-2.5.3h-.462l-54.849-.065a6.356,6.356,0,0,1-1.452-.129,5.478,5.478,0,0,1-3.92-3.879,6.392,6.392,0,0,1-.231-1.452C177.068,186.278,177.068,185.936,177.072,185.607Z" transform="translate(-123.642 -57.742)" fill="#dbdbdb"/>
      <g id="freepik--u5zjqx--inject-9-3" data-name="freepik--u5zjqx--inject-9" transform="translate(65.611 2.398)">
        <path id="Path_1548" data-name="Path 1548" d="M206.975,63.425l-.111.106-.06.065a1.484,1.484,0,0,0-2.108,0l-.06-.06-.106-.111h0a1.725,1.725,0,0,1,.139-.12,1.645,1.645,0,0,1,.319-.208,1.743,1.743,0,0,1,.633-.166h.328a1.586,1.586,0,0,1,.388.092,1.72,1.72,0,0,1,.264.125,1.656,1.656,0,0,1,.254.176l.116.1Z" transform="translate(-204.53 -62.93)" fill="#a6a6a6"/>
        <path id="Path_1549" data-name="Path 1549" d="M205.436,64.456l-.176-.171a1.216,1.216,0,0,1,.7-.351,1.23,1.23,0,0,1,1.059.351l-.176.171A1,1,0,0,0,205.436,64.456Z" transform="translate(-204.923 -63.462)" fill="#a6a6a6"/>
        <path id="Path_1550" data-name="Path 1550" d="M207.078,65.2l-.171.171a.509.509,0,0,0-.726,0l-.171-.171a.749.749,0,0,1,1.068,0Z" transform="translate(-205.326 -64.03)" fill="#a6a6a6"/>
        <path id="Path_1551" data-name="Path 1551" d="M207.134,65.982a.157.157,0,1,1-.153-.153.157.157,0,0,1,.153.153Z" transform="translate(-205.761 -64.489)" fill="#a6a6a6"/>
      </g>
      <path id="Path_1552" data-name="Path 1552" d="M186.76,64.142a.462.462,0,1,1,.462.462A.462.462,0,0,1,186.76,64.142Z" transform="translate(-129.364 -60.935)" fill="#a6a6a6"/>
      <path id="Path_1553" data-name="Path 1553" d="M189.817,64.262a.462.462,0,1,1,.19.485A.462.462,0,0,1,189.817,64.262Z" transform="translate(-131.001 -61.055)" fill="#a6a6a6"/>
      <path id="Path_1554" data-name="Path 1554" d="M192.9,64.142a.462.462,0,1,1,.462.462A.462.462,0,0,1,192.9,64.142Z" transform="translate(-132.665 -60.935)" fill="#a6a6a6"/>
      <circle id="Ellipse_717" data-name="Ellipse 717" cx="0.448" cy="0.448" r="0.448" transform="translate(61.654 2.759)" fill="#a6a6a6"/>
      <path id="Path_1555" data-name="Path 1555" d="M199,64.142a.462.462,0,1,1,.462.462A.462.462,0,0,1,199,64.142Z" transform="translate(-135.945 -60.935)" fill="#a6a6a6"/>
      <path id="Path_1556" data-name="Path 1556" d="M308.816,64.837H305.15v-1.7h3.666Zm-3.481-.185h3.291V63.325h-3.291Z" transform="translate(-193.024 -60.645)" fill="#a6a6a6"/>
      <rect id="Rectangle_625" data-name="Rectangle 625" width="2.362" height="1.119" transform="translate(112.431 2.782)" fill="#a6a6a6"/>
      <rect id="Rectangle_626" data-name="Rectangle 626" width="0.328" height="0.906" transform="translate(115.791 2.888)" fill="#a6a6a6"/>
      <path id="Path_1557" data-name="Path 1557" d="M238.559,331.849a.985.985,0,1,1-.287-.7A.989.989,0,0,1,238.559,331.849Z" transform="translate(-156.153 -204.604)" fill="#dbdbdb"/>
      <path id="Path_1558" data-name="Path 1558" d="M250.4,331.258a1.493,1.493,0,1,1-.436-1.059,1.5,1.5,0,0,1,.436,1.059Z" transform="translate(-161.971 -204.012)" fill="#519259"/>
      <path id="Path_1559" data-name="Path 1559" d="M262.4,331.849a.989.989,0,1,1-.989-.989.989.989,0,0,1,.989.989Z" transform="translate(-168.972 -204.604)" fill="#dbdbdb"/>
      <path id="Path_1560" data-name="Path 1560" d="M239,185.02v-1.96a.18.18,0,0,1,.185-.18.185.185,0,0,1,.185.18v1.775h.925a.185.185,0,0,1,0,.37h-1.086a.18.18,0,0,1-.208-.185Z" transform="translate(-157.454 -125.032)" fill="#dbdbdb"/>
      <path id="Path_1561" data-name="Path 1561" d="M244.437,183.086a1.216,1.216,0,0,1,0,1.683,1.091,1.091,0,0,1-.8.356,1.119,1.119,0,0,1-.814-.356,1.244,1.244,0,0,1,0-1.683,1.119,1.119,0,0,1,.814-.356,1.091,1.091,0,0,1,.8.356Zm-.042.841a.878.878,0,0,0-.227-.582.735.735,0,0,0-.527-.236.721.721,0,0,0-.536.236.832.832,0,0,0-.227.582.814.814,0,0,0,.227.578.726.726,0,0,0,.536.24.74.74,0,0,0,.527-.24A.855.855,0,0,0,244.4,183.927Z" transform="translate(-159.337 -124.951)" fill="#dbdbdb"/>
      <path id="Path_1562" data-name="Path 1562" d="M248.61,183.954a1.23,1.23,0,0,1,1.983-.925.19.19,0,1,1-.231.3.855.855,0,0,0-.527-.18.827.827,0,0,0-.6.245.781.781,0,0,0,0,1.146.827.827,0,0,0,.6.245.952.952,0,0,0,.462-.125V184.2h-.462a.194.194,0,0,1-.19-.19.185.185,0,0,1,.19-.185h.661a.19.19,0,0,1,.194.185v.772h0a.157.157,0,0,1-.06.079,1.243,1.243,0,0,1-.758.259,1.207,1.207,0,0,1-1.262-1.165Z" transform="translate(-162.622 -124.973)" fill="#dbdbdb"/>
      <path id="Path_1563" data-name="Path 1563" d="M254.74,183.06a.176.176,0,0,1,.18-.18.185.185,0,0,1,.19.18v1.96a.185.185,0,0,1-.19.185.18.18,0,0,1-.18-.185Z" transform="translate(-165.918 -125.032)" fill="#dbdbdb"/>
      <path id="Path_1564" data-name="Path 1564" d="M257.251,185.042a.185.185,0,0,1-.18.185.18.18,0,0,1-.18-.185v-1.928h0a.18.18,0,0,1,.324-.111l1.077,1.484V183.1a.18.18,0,0,1,.176-.18.185.185,0,0,1,.185.18v1.928a.185.185,0,0,1-.185.185.176.176,0,0,1-.134-.069l-1.063-1.475Z" transform="translate(-167.074 -125.053)" fill="#dbdbdb"/>
      <path id="Path_1565" data-name="Path 1565" d="M195,209.561v-1.613a.148.148,0,0,1,.148-.148h.9a.153.153,0,0,1,0,.3H195.3v.5h.624a.15.15,0,1,1,0,.3h-.638v.5h.744a.153.153,0,0,1,0,.305h-.9A.148.148,0,0,1,195,209.561Z" transform="translate(-133.794 -138.432)" fill="#263238"/>
      <path id="Path_1566" data-name="Path 1566" d="M199.6,209.522h0v.652a.143.143,0,0,1-.143.143.148.148,0,0,1-.148-.143v-.652h0a.282.282,0,0,0-.282-.277.287.287,0,0,0-.277.282v.68h0a.157.157,0,0,1-.139.088h-.028a.143.143,0,0,1-.116-.139V209.5h0v-.425a.148.148,0,0,1,.277-.065.591.591,0,0,1,.291-.083.582.582,0,0,0,.86,0,.573.573,0,0,1,.569.573v.652a.143.143,0,0,1-.143.143.148.148,0,0,1-.148-.143V209.5a.282.282,0,0,0-.277-.282.291.291,0,0,0-.3.3Z" transform="translate(-135.66 -139.039)" fill="#263238"/>
      <path id="Path_1567" data-name="Path 1567" d="M205.07,209.657v.536a.144.144,0,0,1-.287.028.624.624,0,0,1-.365.116.656.656,0,0,1-.462-.2.726.726,0,0,1,0-.966.643.643,0,0,1,.462-.2.629.629,0,0,1,.365.12.144.144,0,1,1,.287.028Zm-.291,0a.4.4,0,0,0-.106-.282.337.337,0,0,0-.508,0,.4.4,0,0,0-.1.282.421.421,0,0,0,.1.282.356.356,0,0,0,.509,0,.425.425,0,0,0,.129-.282Z" transform="translate(-138.511 -139.055)" fill="#263238"/>
      <path id="Path_1568" data-name="Path 1568" d="M208.036,208a.148.148,0,0,1-.148.153.153.153,0,0,1-.148-.153v-.055a.148.148,0,0,1,.148-.148.143.143,0,0,1,.148.148Zm0,.495v1.068a.143.143,0,0,1-.148.148.148.148,0,0,1-.148-.148V208.5a.148.148,0,0,1,.148-.148.139.139,0,0,1,.148.148Z" transform="translate(-140.645 -138.432)" fill="#263238"/>
      <path id="Path_1569" data-name="Path 1569" d="M209.465,207.8a.148.148,0,0,1,.153.148v1.613a.153.153,0,1,1-.3,0v-1.613a.148.148,0,0,1,.148-.148Z" transform="translate(-141.492 -138.432)" fill="#263238"/>
      <rect id="Rectangle_627" data-name="Rectangle 627" width="51.794" height="4.586" transform="translate(60.924 73.228)" fill="#ebebeb"/>
      <path id="Path_1570" data-name="Path 1570" d="M195.648,232.917h-.337v.592a.15.15,0,1,1-.3,0V231.9a.148.148,0,0,1,.148-.148h.49a.587.587,0,1,1,0,1.17Zm-.337-.305h.337a.282.282,0,0,0,.287-.277.287.287,0,0,0-.287-.287h-.337Z" transform="translate(-133.8 -151.307)" fill="#263238"/>
      <path id="Path_1571" data-name="Path 1571" d="M199.384,233.661v.536a.143.143,0,0,1-.143.143.153.153,0,0,1-.143-.116.61.61,0,0,1-.361.116.643.643,0,0,1-.462-.2.707.707,0,0,1-.185-.462.689.689,0,0,1,.185-.462.615.615,0,0,1,.827-.088.153.153,0,0,1,.143-.12.143.143,0,0,1,.143.148Zm-.287,0a.407.407,0,0,0-.106-.282.351.351,0,0,0-.254-.116.324.324,0,0,0-.254.116.388.388,0,0,0-.106.282.4.4,0,0,0,.106.282.347.347,0,0,0,.254.106.384.384,0,0,0,.236-.12.425.425,0,0,0,.125-.268Z" transform="translate(-135.456 -151.987)" fill="#263238"/>
      <path id="Path_1572" data-name="Path 1572" d="M201.873,233.887a.139.139,0,0,1,.2,0,.527.527,0,0,0,.305.12.365.365,0,0,0,.185-.055.111.111,0,0,0,.046-.079.051.051,0,0,0,0-.028.088.088,0,0,0-.037-.032.6.6,0,0,0-.217-.079h0a.924.924,0,0,1-.236-.069.462.462,0,0,1-.19-.162.3.3,0,0,1-.046-.171.379.379,0,0,1,.162-.3.578.578,0,0,1,.333-.1.707.707,0,0,1,.411.153.148.148,0,0,1,.046.2.143.143,0,0,1-.2.042.462.462,0,0,0-.254-.1.282.282,0,0,0-.162.051c-.037.023-.046.046-.046.06l.028.028a.657.657,0,0,0,.2.065h0a.842.842,0,0,1,.259.079.43.43,0,0,1,.194.162.342.342,0,0,1,.051.18.388.388,0,0,1-.171.314.624.624,0,0,1-.356.111.809.809,0,0,1-.49-.19A.143.143,0,0,1,201.873,233.887Z" transform="translate(-137.473 -151.945)" fill="#263238"/>
      <path id="Path_1573" data-name="Path 1573" d="M204.725,233.887a.143.143,0,0,1,.208,0,.513.513,0,0,0,.3.12.365.365,0,0,0,.185-.055.12.12,0,0,0,.051-.079.051.051,0,0,0,0-.028.088.088,0,0,0-.037-.032.6.6,0,0,0-.217-.079h0a.923.923,0,0,1-.236-.069.462.462,0,0,1-.19-.162.3.3,0,0,1-.046-.171.379.379,0,0,1,.162-.3.578.578,0,0,1,.333-.1.707.707,0,0,1,.411.153.148.148,0,0,1,.046.2.143.143,0,0,1-.2.042.462.462,0,0,0-.254-.1.282.282,0,0,0-.162.051c-.037.023-.046.046-.046.06l.028.028a.657.657,0,0,0,.2.065h0a.85.85,0,0,1,.254.079.411.411,0,0,1,.194.162.342.342,0,0,1,.051.18.388.388,0,0,1-.171.314.624.624,0,0,1-.356.111.809.809,0,0,1-.49-.19.148.148,0,0,1-.014-.194Z" transform="translate(-139.008 -151.945)" fill="#263238"/>
      <path id="Path_1574" data-name="Path 1574" d="M209.6,233.17l-.462,1.063a.078.078,0,0,1,0,.023h-.162a.078.078,0,0,1,0-.023l-.2-.462-.194.462a.042.042,0,0,1,0,.023h-.166v-.023l-.462-1.063a.139.139,0,0,1,.079-.185.134.134,0,0,1,.18.079l.324.74.19-.462a.153.153,0,0,1,.134-.088.139.139,0,0,1,.134.088l.194.462.324-.74a.134.134,0,0,1,.185-.079.139.139,0,0,1-.092.185Z" transform="translate(-140.75 -151.967)" fill="#263238"/>
      <path id="Path_1575" data-name="Path 1575" d="M212.72,234.143a.693.693,0,0,1-.19-.462.721.721,0,0,1,.19-.462.638.638,0,0,1,.462-.208.6.6,0,0,1,.462.208.68.68,0,0,1,.19.462.656.656,0,0,1-.19.462.6.6,0,0,1-.462.208A.638.638,0,0,1,212.72,234.143Zm.111-.462a.462.462,0,0,0,.1.287.361.361,0,0,0,.264.1.347.347,0,0,0,.254-.1.462.462,0,0,0,0-.573.388.388,0,0,0-.254-.1.407.407,0,0,0-.264.1.462.462,0,0,0-.1.268Z" transform="translate(-143.221 -151.988)" fill="#263238"/>
      <path id="Path_1576" data-name="Path 1576" d="M217.091,233.052a.143.143,0,0,1-.143.148.254.254,0,0,0-.166.051.388.388,0,0,0-.125.134.813.813,0,0,0-.111.227v.522a.148.148,0,0,1-.153.143.143.143,0,0,1-.143-.143v-1.082a.139.139,0,0,1,.143-.139.143.143,0,0,1,.153.139h0A.213.213,0,0,1,216.6,233a.592.592,0,0,1,.347-.106.139.139,0,0,1,.143.162Z" transform="translate(-145.221 -151.923)" fill="#263238"/>
      <path id="Path_1577" data-name="Path 1577" d="M219.8,233.494a.148.148,0,0,1-.148.148.143.143,0,0,1-.143-.116.691.691,0,1,1-.374-1.271.647.647,0,0,1,.365.116v-.513a.153.153,0,0,1,.153-.148.148.148,0,0,1,.148.148v1.082h0Zm-.666-.925a.351.351,0,0,0-.254.111.388.388,0,0,0-.111.277.384.384,0,0,0,.111.268.337.337,0,0,0,.254.116.347.347,0,0,0,.259-.116.379.379,0,0,0,.106-.268.384.384,0,0,0-.106-.277.36.36,0,0,0-.259-.106Z" transform="translate(-146.399 -151.289)" fill="#263238"/>
      <rect id="Rectangle_628" data-name="Rectangle 628" width="51.794" height="4.586" transform="translate(60.924 84.3)" fill="#ebebeb"/>
      <path id="Path_1578" data-name="Path 1578" d="M194.39,261.786l6.477-.06,6.472-.018,12.948-.037,12.948.037,6.477.018,6.472.06-6.472.055-6.477.018-12.948.037-12.948-.037-6.472-.018Z" transform="translate(-133.466 -167.399)" fill="#ebebeb"/>
      <path id="Path_1579" data-name="Path 1579" d="M194.39,202.086l6.477-.055,6.472-.023,12.948-.037,12.948.037,6.477.023,6.472.055-6.472.055-6.477.023-12.948.037-12.948-.037-6.472-.023Z" transform="translate(-133.466 -135.297)" fill="#ebebeb"/>
      <path id="Path_1580" data-name="Path 1580" d="M241.182,130.786a14.5,14.5,0,1,1,6.472-15.773A14.5,14.5,0,0,1,241.182,130.786Z" transform="translate(-146.738 -82.59)" fill="#ebebeb"/>
      <circle id="Ellipse_718" data-name="Ellipse 718" cx="4.41" cy="4.41" r="4.41" transform="translate(81.994 30.244) rotate(-5.64)" fill="#fff"/>
      <path id="Path_1581" data-name="Path 1581" d="M249.155,149.128v1.849a14.516,14.516,0,0,1-15.255,0v-1.849a7.628,7.628,0,0,1,15.255,0Z" transform="translate(-154.712 -102.781)" fill="#fff"/>
      <path id="Path_1582" data-name="Path 1582" d="M194.39,302.676c1.771-.042,3.536-.074,5.3-.088L205,302.56l5.3.028c1.766,0,3.536.046,5.3.088-1.766.042-3.536.074-5.3.088l-5.3.028-5.307-.028C197.908,302.763,196.161,302.717,194.39,302.676Z" transform="translate(-133.466 -189.386)" fill="#ebebeb"/>
      <path id="Path_1583" data-name="Path 1583" d="M260.55,302.676c1.766-.042,3.532-.074,5.3-.088l5.3-.028,5.3.028c1.771,0,3.536.046,5.3.088-1.766.042-3.532.074-5.3.088l-5.3.028-5.312-.028C264.082,302.763,262.316,302.717,260.55,302.676Z" transform="translate(-169.042 -189.386)" fill="#ebebeb"/>
      <path id="Path_1584" data-name="Path 1584" d="M247.37,302.493a.717.717,0,0,1-.19-.49.744.744,0,0,1,.19-.49.67.67,0,0,1,.462-.213.624.624,0,0,1,.462.213.7.7,0,0,1,.194.49.68.68,0,0,1-.194.49.624.624,0,0,1-.462.208.666.666,0,0,1-.462-.208Zm.116-.49a.462.462,0,0,0,.1.291.379.379,0,0,0,.527,0,.425.425,0,0,0,.106-.291.365.365,0,0,0-.365-.4.411.411,0,0,0-.268.106.434.434,0,0,0-.1.291Z" transform="translate(-161.853 -188.709)" fill="#dbdbdb"/>
      <path id="Path_1585" data-name="Path 1585" d="M251.841,301.432a.148.148,0,0,1-.148.148.259.259,0,0,0-.166.055.494.494,0,0,0-.129.129.97.97,0,0,0-.111.236v.532a.153.153,0,0,1-.157.148.148.148,0,0,1-.129-.148v-1.1a.143.143,0,0,1,.143-.143.152.152,0,0,1,.157.143h0a.316.316,0,0,1,.055-.055.61.61,0,0,1,.351-.106.143.143,0,0,1,.134.162Z" transform="translate(-163.907 -188.692)" fill="#dbdbdb"/>
      <rect id="Rectangle_629" data-name="Rectangle 629" width="4.1" height="4.1" transform="translate(84.583 116.909)" fill="#455a64"/>
      <path id="Path_1586" data-name="Path 1586" d="M248.045,313.77H247.5v-.624h.536v-.619a.684.684,0,0,1,.61-.661,4.82,4.82,0,0,1,.684,0v.569h-.213a1.736,1.736,0,0,0-.222,0,.208.208,0,0,0-.176.2v.495h.624c-.028.208-.051.4-.079.587,0,0-.051.042-.079.042h-.462v1.609h-.666Z" transform="translate(-162.025 -194.384)" fill="#fff"/>
      <rect id="Rectangle_630" data-name="Rectangle 630" width="26.65" height="8.474" transform="translate(73.285 99.731)" fill="#519259"/>
      <path id="Path_1587" data-name="Path 1587" d="M237.23,282.269v-2.311a.213.213,0,0,1,.213-.217.217.217,0,0,1,.217.217v2.076h1.054a.217.217,0,1,1,0,.43h-1.271A.213.213,0,0,1,237.23,282.269Z" transform="translate(-156.502 -177.115)" fill="#fff"/>
      <path id="Path_1588" data-name="Path 1588" d="M243.645,280.026a1.442,1.442,0,0,1,.393.985,1.415,1.415,0,0,1-.393.985,1.271,1.271,0,0,1-.925.416,1.3,1.3,0,0,1-.952-.416,1.387,1.387,0,0,1-.388-.985,1.415,1.415,0,0,1,.388-.985,1.3,1.3,0,0,1,.952-.416,1.271,1.271,0,0,1,.925.416Zm-.051.985a1.017,1.017,0,0,0-.264-.68.846.846,0,0,0-.615-.277.855.855,0,0,0-.633.277.994.994,0,0,0-.263.68.98.98,0,0,0,.264.68.855.855,0,0,0,.633.277.846.846,0,0,0,.615-.277A1,1,0,0,0,243.594,281.011Z" transform="translate(-158.734 -177.045)" fill="#fff"/>
      <path id="Path_1589" data-name="Path 1589" d="M248.53,281.037a1.419,1.419,0,0,1,1.433-1.387,1.442,1.442,0,0,1,.888.305.222.222,0,0,1,.046.314.226.226,0,0,1-.314.037,1.022,1.022,0,0,0-.619-.213.961.961,0,0,0-.7.287.925.925,0,0,0,0,1.345.957.957,0,0,0,.7.282,1.091,1.091,0,0,0,.536-.143v-.536h-.559a.227.227,0,0,1-.222-.222.217.217,0,0,1,.222-.217h.777a.217.217,0,0,1,.227.217v.86a.371.371,0,0,1,0,.069h0a.226.226,0,0,1-.074.092,1.447,1.447,0,0,1-.888.3,1.41,1.41,0,0,1-1.452-1.391Z" transform="translate(-162.579 -177.067)" fill="#fff"/>
      <path id="Path_1590" data-name="Path 1590" d="M255.7,280a.213.213,0,0,1,.217-.217.217.217,0,0,1,.217.217v2.311a.217.217,0,0,1-.217.213.213.213,0,0,1-.217-.213Z" transform="translate(-166.434 -177.137)" fill="#fff"/>
      <path id="Path_1591" data-name="Path 1591" d="M258.645,282.329a.217.217,0,0,1-.213.213.213.213,0,0,1-.213-.213v-2.261h0a.2.2,0,0,1,.088-.176.213.213,0,0,1,.3.046l1.257,1.738v-1.6a.208.208,0,0,1,.208-.208.213.213,0,0,1,.213.208v2.26a.213.213,0,0,1-.374.139v-.028l-1.244-1.724Z" transform="translate(-167.789 -177.176)" fill="#fff"/>
    </g>
    <g id="freepik--Icons--inject-9" transform="translate(133.609 38.608)">
      <path id="Path_1592" data-name="Path 1592" d="M308.025,389.107l5.94-1.66s-.73-2.935-.73-3.051.425-3.37.425-3.985a32.4,32.4,0,0,0-1.489-5.136,1.355,1.355,0,0,0-1.553-.9.961.961,0,0,0-.851.638,1.239,1.239,0,0,0-1.174-.647,1.475,1.475,0,0,0-1.091.98,1.193,1.193,0,0,0-2.034.582s-1.627-3.916-2.062-5.011-1.849-.707-1.692.652,2.478,8.168,2.529,8.45.263,1.387.263,1.387a26.647,26.647,0,0,0-2.085-3.7c-.846-1.077-2.085-.388-1.447.989s1.609,4.082,2.016,4.623,3.851,3.074,3.957,3.162S308.025,389.107,308.025,389.107Z" transform="translate(-276.498 -217.431)" fill="#519259"/>
      <path id="Path_1593" data-name="Path 1593" d="M304.292,369.824a2.331,2.331,0,1,1,0-.032Zm0,0a2.108,2.108,0,0,0-.67-1.544,2.141,2.141,0,0,0-1.539-.555,2.1,2.1,0,1,0,2.21,2.1Z" transform="translate(-275.936 -215.922)" fill="#519259"/>
      <path id="Path_1594" data-name="Path 1594" d="M304.026,368.95a3.092,3.092,0,1,1-2.972-3.093A3.1,3.1,0,0,1,304.026,368.95Zm0,0a2.857,2.857,0,1,0-.877,2.062A2.857,2.857,0,0,0,304.026,368.95Z" transform="translate(-274.907 -215.048)" fill="#519259"/>
      <path id="Path_1595" data-name="Path 1595" d="M311.661,386.425l-11.913.074-11.982.037h-.116v-.116l-.06-23.9v-.171h.19l23.9.055h.116v.116l-.037,11.982Zm0,0-.079-11.982-.037-11.918.116.116-23.881.055.171-.171-.055,23.9-.116-.116,11.918.037Z" transform="translate(-269.395 -213.164)" fill="#519259"/>
      <path id="Path_1596" data-name="Path 1596" d="M267.451,339.881H249.81V297.8h.231v41.85h17.409Z" transform="translate(-249.08 -178.454)" fill="#519259"/>
      <path id="Path_1597" data-name="Path 1597" d="M249.922,296.816a.846.846,0,1,1-.846-.846A.846.846,0,0,1,249.922,296.816Z" transform="translate(-248.23 -177.47)" fill="#519259"/>
      <path id="Path_1598" data-name="Path 1598" d="M369.861,63.692l-11.913.074-11.982.037h-.116v-.116L345.79,39.8V39.63h.176l23.9.055h.116V39.8l-.051,11.973Zm0,0-.079-11.982L369.745,39.8l.116.116-23.9.055.171-.171-.055,23.9-.116-.116,11.918.037Z" transform="translate(-300.69 -39.63)" fill="#519259"/>
      <path id="Path_1599" data-name="Path 1599" d="M367.592,64.232l6.194-1.692s-.989-2.9-.989-3.023.425-3.37.425-3.98a32.722,32.722,0,0,0-1.484-5.141c-.425-.777-.846-.989-1.553-.892a.962.962,0,0,0-.851.633,1.248,1.248,0,0,0-1.179-.647,1.479,1.479,0,0,0-1.091.985,47.171,47.171,0,0,0-2.27-5.432c-.462-.79-1.636-.259-1.5.661s1.743,5.307,1.7,5.492c0,0-1.586-4.054-2.02-5.15s-1.849-.707-1.692.652,2.473,8.164,2.529,8.45.263,1.387.263,1.387a27.163,27.163,0,0,0-2.085-3.7c-.851-1.082-2.085-.388-1.452.989s1.609,4.082,2.016,4.623,3.855,3.074,3.962,3.162S367.592,64.232,367.592,64.232Z" transform="translate(-308.527 -42.334)" fill="#519259"/>
      <path id="Path_1600" data-name="Path 1600" d="M354.412,55.586a29.851,29.851,0,0,1-.222-3.453c0-1.151,0-2.311.088-3.453h.287c.088,1.151.106,2.311.092,3.453A29.865,29.865,0,0,1,354.412,55.586Z" transform="translate(-305.207 -44.496)" fill="#519259"/>
      <path id="Path_1601" data-name="Path 1601" d="M354.525,47.409l-.925-1.6-.92,1.6Z" transform="translate(-304.395 -42.953)" fill="#519259"/>
      <path id="Path_1602" data-name="Path 1602" d="M357.88,45.81a30.916,30.916,0,0,1,.222,3.453c0,1.151,0,2.311-.088,3.453h-.273c-.083-1.151-.106-2.311-.088-3.453A29.874,29.874,0,0,1,357.88,45.81Z" transform="translate(-307.066 -42.953)" fill="#519259"/>
      <path id="Path_1603" data-name="Path 1603" d="M356.15,60.16l.92,1.6.925-1.6Z" transform="translate(-306.261 -50.669)" fill="#519259"/>
      <rect id="Rectangle_631" data-name="Rectangle 631" width="0.231" height="53.06" transform="translate(57.11 24.062)" fill="#519259"/>
      <path id="Path_1604" data-name="Path 1604" d="M370.18,205.461a.846.846,0,1,1,.248.6A.851.851,0,0,1,370.18,205.461Z" transform="translate(-313.805 -128.343)" fill="#519259"/>
    </g>
    <g id="freepik--Plant--inject-9" transform="translate(195.891 164.411)">
      <path id="Path_1605" data-name="Path 1605" d="M404.249,321.119a16.537,16.537,0,0,1-.319,6.356,17.726,17.726,0,0,1-.975,2.811,7.427,7.427,0,0,0-.925,3.569c.125.083-.3.069-.314-.055-3.4-1.937-7.757-2.288-10.374-5.455a10.836,10.836,0,0,1-2.159-5.3,16.116,16.116,0,0,1,.12-6.4,6.568,6.568,0,0,1,3.079-4.234,7.831,7.831,0,0,1,5.626-.25C401.822,313.353,403.713,317.449,404.249,321.119Z" transform="translate(-386.164 -311.765)" fill="#519259"/>
      <path id="Path_1606" data-name="Path 1606" d="M409.4,350.66c-.462-1.544-.925-3.093-1.387-4.623-.925-3.019-1.9-6.01-2.977-9.005q-.962-2.672-2.034-5.293a33.058,33.058,0,0,1,.407-3.287c.287-1.317.7-2.593,1.082-3.879a.074.074,0,0,0-.139-.046,17.3,17.3,0,0,0-1.784,6.153q-1.244-2.968-2.672-5.848a25.306,25.306,0,0,1,.153-4.872c0-.074-.1-.1-.116-.023a17.4,17.4,0,0,0-.333,4.3c-.73-1.442-1.5-2.871-2.311-4.271-.074-.129-.25,0-.185.125,1.281,2.459,2.464,4.974,3.578,7.517a16.485,16.485,0,0,0-5.33-3.088c-.088-.028-.148.092-.065.129a19.336,19.336,0,0,1,5.765,3.818q1.2,2.774,2.288,5.635a17.737,17.737,0,0,0-7.859-4.193c-.1-.028-.125.12-.032.148a21.642,21.642,0,0,1,8.27,5.048q.43,1.151.846,2.311,1.572,4.369,3,8.783.689,2.117,1.35,4.244c.462,1.521.846,3.134,1.465,4.623.06.143.31.111.277-.06a44.137,44.137,0,0,0-1.257-4.35Z" transform="translate(-389.564 -316.135)" fill="#263238"/>
      <path id="Path_1607" data-name="Path 1607" d="M412.235,325.53a8.394,8.394,0,0,0-1.225,3.051.028.028,0,0,0,.051,0,26.151,26.151,0,0,1,1.327-2.991C412.438,325.5,412.291,325.442,412.235,325.53Z" transform="translate(-398.042 -319.144)" fill="#263238"/>
      <path id="Path_1608" data-name="Path 1608" d="M396.958,339.706a8.922,8.922,0,0,0-3.051-1.026c-.028,0-.046.037,0,.046.49.2,1,.347,1.5.536s.985.425,1.489.6a.088.088,0,0,0,.06-.157Z" transform="translate(-388.83 -326.238)" fill="#263238"/>
      <path id="Path_1609" data-name="Path 1609" d="M395.622,321.761a5.874,5.874,0,0,0-.985-.606.051.051,0,0,0-.055.083,6.072,6.072,0,0,0,.966.629C395.613,321.9,395.692,321.8,395.622,321.761Z" transform="translate(-389.2 -316.812)" fill="#263238"/>
      <path id="Path_1610" data-name="Path 1610" d="M434.615,335.405c-2.445.726-4.909,1.387-7.355,2.117-.213.065-4.35-7.859-2.857-11.955a13.342,13.342,0,0,1,8.321-7.9,11.317,11.317,0,0,1,5.746-.684,4.765,4.765,0,0,1,3.333,3.236,13.709,13.709,0,0,1,.092,6.745,11.811,11.811,0,0,1-2.409,5.506A9.6,9.6,0,0,1,434.615,335.405Z" transform="translate(-405.069 -314.494)" fill="#519259"/>
      <path id="Path_1611" data-name="Path 1611" d="M437.719,333.509a32.437,32.437,0,0,1-4.8,1.891,20.447,20.447,0,0,0-3.2,1.16c1.031-2.311,2.168-4.563,3.37-6.8a11.067,11.067,0,0,0,4.438-2.311.069.069,0,0,0-.088-.1,22.454,22.454,0,0,1-4.188,2.1q.49-.925.989-1.8c.1-.166-.134-.333-.245-.171a51,51,0,0,0-3.462,5.862,26.546,26.546,0,0,1-.25-5.353.037.037,0,1,0-.074,0,17.932,17.932,0,0,0,.06,5.88c-.86,1.715-1.641,3.472-2.344,5.247-.277-1.068-.643-2.117-.883-3.194a14.581,14.581,0,0,1-.351-4.715c0-.046-.065-.051-.074,0a16.643,16.643,0,0,0,1.031,8.654q-.617,1.6-1.16,3.236a64.354,64.354,0,0,0-3.236,16.989.106.106,0,0,0,.208,0,84.365,84.365,0,0,1,3.647-16.785c.712-2.136,1.53-4.207,2.427-6.241,1.447-.43,2.885-1.008,4.3-1.5a13.45,13.45,0,0,0,3.971-1.946C437.821,333.56,437.77,333.486,437.719,333.509Z" transform="translate(-404.624 -320.143)" fill="#263238"/>
      <path id="Path_1612" data-name="Path 1612" d="M454.315,335.7c-1.5.532-2.917,1.281-4.41,1.817-.074.028-.032.139.042.125a10.078,10.078,0,0,0,4.424-1.849A.055.055,0,0,0,454.315,335.7Z" transform="translate(-418.936 -324.632)" fill="#263238"/>
      <path id="Path_1613" data-name="Path 1613" d="M432.293,328.61c0-.079-.1-.125-.12-.042a7.644,7.644,0,0,0-.3,4.253.056.056,0,0,0,.106,0A28.45,28.45,0,0,1,432.293,328.61Z" transform="translate(-409.16 -320.777)" fill="#263238"/>
      <path id="Path_1614" data-name="Path 1614" d="M445.662,321.755a3.657,3.657,0,0,0-.652,2.348c0,.055.088.083.1.023.18-.79.485-1.512.73-2.279a.1.1,0,0,0-.18-.092Z" transform="translate(-416.32 -317.111)" fill="#263238"/>
      <path id="Path_1615" data-name="Path 1615" d="M383.384,358.872c.716,2.279,2.422,5.427,5.122,5.45,1.752,0,3.513-.19,5.27-.217,1.882-.028,3.763-.023,5.64.088a10.526,10.526,0,0,0-4.743-8.372,13.656,13.656,0,0,0-4.248-1.322,19.559,19.559,0,0,0-5.02-.509c-1.04.042-1.9.259-2.27,1.322A6.083,6.083,0,0,0,383.384,358.872Z" transform="translate(-382.958 -334.467)" fill="#519259"/>
      <path id="Path_1616" data-name="Path 1616" d="M387.915,357.138c1.1.282,2.205.606,3.305.957a11.01,11.01,0,0,0-.925-.888,18.119,18.119,0,0,0-1.5-1.054c-.046-.028,0-.111.037-.088a6.2,6.2,0,0,1,2.663,2.117c1.387.462,2.732.925,4.04,1.47a15.281,15.281,0,0,1,2.589,1.364,10.514,10.514,0,0,0-.924-1.627,9.179,9.179,0,0,0-2.2-1.761.069.069,0,1,1,.069-.12,6.421,6.421,0,0,1,3.523,3.818,14.959,14.959,0,0,1,2.561,2.311c2.991,3.4,5.344,7.914,5.353,12.523,0,.111-.176.139-.2.028a25.5,25.5,0,0,0-5.7-12.246c-.213-.25-.43-.485-.656-.717a20.962,20.962,0,0,0-2.469-.185c-.962,0-1.914.143-2.875.222a8.33,8.33,0,0,1-4.743-.647c-.06-.037,0-.143.051-.12,3.171,1.156,6.5-.31,9.675.379a14.857,14.857,0,0,0-4.687-3.023l-.291-.116c-2.034.245-4.16.772-6.167.111a.048.048,0,1,1,.028-.092c1.914.462,3.749-.125,5.64-.217-2.057-.8-4.16-1.442-6.218-2.237C387.73,357.249,387.725,357.092,387.915,357.138Z" transform="translate(-385.547 -335.584)" fill="#263238"/>
      <path id="Path_1617" data-name="Path 1617" d="M386.079,362.72a26.46,26.46,0,0,0,2.963.227s.028.037,0,.042a6.19,6.19,0,0,1-2.991-.19C386.014,362.784,386.014,362.715,386.079,362.72Z" transform="translate(-384.608 -339.165)" fill="#263238"/>
      <path id="Path_1618" data-name="Path 1618" d="M400.481,358.5a4.771,4.771,0,0,1,1.465,1.017.061.061,0,0,1-.074.1c-.25-.18-.5-.351-.763-.518a6.634,6.634,0,0,1-.712-.462C400.329,358.583,400.4,358.467,400.481,358.5Z" transform="translate(-392.321 -336.891)" fill="#263238"/>
      <path id="Path_1619" data-name="Path 1619" d="M435.111,365.938c-.037.079.074.148.116.069h0a.111.111,0,0,0,.069.046,45.638,45.638,0,0,0,5.52.961c1.493.134,3.213.217,4.521-.652,1.771-1.174,2.935-4.313,1.979-6.31-1.133-2.372-4.549-1.082-6.259-.24A12.551,12.551,0,0,0,435.111,365.938Z" transform="translate(-410.998 -337.002)" fill="#519259"/>
      <path id="Path_1620" data-name="Path 1620" d="M425.8,368.643a17.73,17.73,0,0,1,3.3-2.506,11.243,11.243,0,0,1,3.342-3.407c.065-.046.12.06.06.106a14.831,14.831,0,0,0-2.815,2.959,31.175,31.175,0,0,1,4.133-1.881,5.5,5.5,0,0,1,2.219-2.224s.042,0,.023.032a9.207,9.207,0,0,0-2.006,2.1c.841-.314,1.692-.606,2.538-.888.079-.023.106.092.032.12-1.507.592-3.051,1.211-4.549,1.928a17.49,17.49,0,0,0,5.51,0,.042.042,0,1,1,0,.079,10.9,10.9,0,0,1-5.843.088,27.389,27.389,0,0,0-2.774,1.549,7.078,7.078,0,0,1,2.237.185,17.1,17.1,0,0,0,3.939.462.046.046,0,0,1,0,.092c-2.284.393-4.447-.647-6.708-.374a17.107,17.107,0,0,0-2.358,1.923,17.672,17.672,0,0,0-3.439,4.854c-.952,1.937-1.47,3.994-2.242,6.01a.074.074,0,0,1-.139-.037A21.317,21.317,0,0,1,425.8,368.643Z" transform="translate(-403.016 -338.611)" fill="#263238"/>
      <path id="Path_1621" data-name="Path 1621" d="M447.148,363.591a2.538,2.538,0,0,1,.587-.707,2.223,2.223,0,0,1,.67-.5c.023,0,.037.023.023.037-.185.213-.462.37-.647.573a8.543,8.543,0,0,1-.578.643.037.037,0,0,1-.055-.042Z" transform="translate(-417.474 -338.982)" fill="#263238"/>
      <path id="Path_1622" data-name="Path 1622" d="M455.278,367.143c.337-.088.7-.079,1.04-.153a9.443,9.443,0,0,0,1.012-.3c.042,0,.069.051.028.074a3.379,3.379,0,0,1-2.08.462.055.055,0,0,1,0-.083Z" transform="translate(-421.836 -341.3)" fill="#263238"/>
      <path id="Path_1623" data-name="Path 1623" d="M411.89,390.27l.3,3.4,1.017,11.5h9l1.271-11.5.379-3.4Z" transform="translate(-398.515 -353.979)" fill="#455a64"/>
      <path id="Path_1624" data-name="Path 1624" d="M411.89,390.27l.3,3.4h11.289l.379-3.4Z" transform="translate(-398.515 -353.979)" fill="#263238"/>
      <rect id="Rectangle_632" data-name="Rectangle 632" width="13.748" height="2.76" transform="translate(26.235 38.122) rotate(180)" fill="#455a64"/>
    </g>
    <g id="freepik--Character--inject-9" transform="translate(44.106 72.639)">
      <path id="Path_1625" data-name="Path 1625" d="M152.842,396.32s-1.322,18.357-1.322,18.371c0,3.6.028,6.749.208,8.381v.023a2.625,2.625,0,0,0,.259,1.114l.023.023c1.068.73,29.8,1.715,30.811,1.41s.231-3.236-.851-4.161-11.922-6.227-11.922-6.227L171.19,396.9Z" transform="translate(-106.724 -265.461)" fill="#d3766a"/>
      <path id="Path_1626" data-name="Path 1626" d="M151.52,427.71v3.86c0,3.6.028,6.749.208,8.381v.023a4.931,4.931,0,0,0,.259,1.114l.023.023c1.068.73,29.8,1.715,30.811,1.41s.231-3.236-.851-4.16-11.922-6.227-11.922-6.227l.051-3.915Z" transform="translate(-106.724 -282.34)" fill="#fff"/>
      <path id="Path_1627" data-name="Path 1627" d="M182.822,446.829c-1.017.305-29.748-.68-30.815-1.41-.411-.273-.513-4.466-.49-9.541v-.157l18.542.425v.314s10.827,5.3,11.922,6.227S183.834,446.528,182.822,446.829Z" transform="translate(-106.72 -286.647)" fill="#519259"/>
      <path id="Path_1628" data-name="Path 1628" d="M184.626,456.274c-4.835-.287-24.381-.975-29.188-.892-.037,0-.037.028,0,.032,4.789.388,24.339.925,29.188.925C184.728,456.353,184.732,456.279,184.626,456.274Z" transform="translate(-108.815 -297.216)" fill="#263238"/>
      <path id="Path_1629" data-name="Path 1629" d="M188.3,437.333a6.754,6.754,0,0,0-5.737,1.1c-.055.051,0,.134.079.116a26.81,26.81,0,0,1,5.644-.975.12.12,0,0,0,.014-.24Z" transform="translate(-123.404 -287.41)" fill="#263238"/>
      <path id="Path_1630" data-name="Path 1630" d="M191.178,439.233a6.751,6.751,0,0,0-5.737,1.1c-.06.046,0,.129.074.111a26.869,26.869,0,0,1,5.644-.971.121.121,0,0,0,.018-.24Z" transform="translate(-124.951 -288.431)" fill="#263238"/>
      <path id="Path_1631" data-name="Path 1631" d="M194.091,441.123a6.754,6.754,0,0,0-5.737,1.1c-.055.051,0,.134.079.116a26.818,26.818,0,0,1,5.644-.975.12.12,0,1,0,.014-.24Z" transform="translate(-126.518 -289.448)" fill="#263238"/>
      <path id="Path_1632" data-name="Path 1632" d="M147.98,320.573l20.114-.4s2.455-36.192,2-48.257c-.5-13.106-6.125-52.1-6.125-52.1H147s4.341,39.15,4.433,52.261C151.5,284.224,147.98,320.573,147.98,320.573Z" transform="translate(-104.293 -170.548)" fill="#263238"/>
      <path id="Path_1633" data-name="Path 1633" d="M160.628,219.81l-10.2,35.3c-1.211-16.721-3.425-35.3-3.425-35.3Z" transform="translate(-104.293 -170.548)" fill="#37474f"/>
      <path id="Path_1634" data-name="Path 1634" d="M153.93,224l1.077,11.64,1,11.645c.643,7.771,1.248,15.537,1.71,23.327.111,1.942.18,3.9.153,5.852s-.12,3.9-.217,5.848q-.3,5.843-.754,11.673t-.925,11.654l-1.086,11.626.869-11.659q.435-5.829.818-11.659c.245-3.892.509-7.776.689-11.668q.139-2.917.2-5.834,0-2.912-.176-5.825c-.421-7.78-1.036-15.551-1.6-23.322Z" transform="translate(-108.019 -172.801)" fill="#37474f"/>
      <path id="Path_1635" data-name="Path 1635" d="M169.331,429.584c-3.139-.028-2.237-.065-5.376-.055-1.539,0-11.636.037-13.069.3a.032.032,0,0,0,0,.06c1.438.222,11.557,0,13.073-.023,3.139-.069,2.237-.083,5.376-.185C169.391,429.676,169.391,429.584,169.331,429.584Z" transform="translate(-106.372 -283.317)" fill="#37474f"/>
      <path id="Path_1636" data-name="Path 1636" d="M68.066,375s-9.708,15.768-9.708,15.782c-1.576,3.236-2.9,6.093-3.449,7.637a.051.051,0,0,0,0,.028,2.459,2.459,0,0,0-.25,1.114v.028c.643,1.119,26.109,14.469,27.154,14.636s1.6-2.8,1.026-4.105-8.044-10.78-8.044-10.78L84.333,383.5Z" transform="translate(-54.639 -253.997)" fill="#d3766a"/>
      <path id="Path_1637" data-name="Path 1637" d="M54.648,414.67a.06.06,0,0,0,0,.028c.647,1.123,26.114,14.469,27.159,14.636s1.6-2.8,1.026-4.105-8.044-10.78-8.044-10.78l1.7-2.829c-4.161-2.219-11.728-6.111-16.425-8.529l-1.72,2.8c-1.576,3.236-2.9,6.093-3.444,7.637a.064.064,0,0,0,0,.028,2.385,2.385,0,0,0-.254,1.114Z" transform="translate(-54.633 -269.101)" fill="#fff"/>
      <path id="Path_1638" data-name="Path 1638" d="M81.8,432.425c-1.049-.166-26.512-13.512-27.154-14.636-.254-.425,1.475-4.248,3.7-8.806.023-.046.046-.1.074-.143l16.522,8.427-.153.273s7.461,9.467,8.044,10.78S82.84,432.6,81.8,432.425Z" transform="translate(-54.616 -272.193)" fill="#519259"/>
      <path id="Path_1639" data-name="Path 1639" d="M83.721,441.737c-4.234-2.353-21.547-11.451-25.915-13.457-.032,0-.046,0,0,.028,4.16,2.427,21.533,11.381,25.888,13.5C83.767,441.853,83.813,441.788,83.721,441.737Z" transform="translate(-56.315 -282.647)" fill="#263238"/>
      <path id="Path_1640" data-name="Path 1640" d="M94.538,427.409a6.753,6.753,0,0,0-5.649-1.5c-.074,0-.042.125,0,.134a26.922,26.922,0,0,1,5.506,1.572.126.126,0,1,0,.143-.208Z" transform="translate(-73.022 -281.285)" fill="#263238"/>
      <path id="Path_1641" data-name="Path 1641" d="M96.381,430.379a6.743,6.743,0,0,0-5.644-1.5c-.074,0-.046.125,0,.139a26.666,26.666,0,0,1,5.51,1.567.124.124,0,0,0,.134-.208Z" transform="translate(-74.015 -282.882)" fill="#263238"/>
      <path id="Path_1642" data-name="Path 1642" d="M98.148,433.349a6.753,6.753,0,0,0-5.649-1.5c-.074,0-.042.125,0,.139a26.958,26.958,0,0,1,5.51,1.567.125.125,0,0,0,.139-.208Z" transform="translate(-74.963 -284.479)" fill="#263238"/>
      <path id="Path_1643" data-name="Path 1643" d="M116.01,219.716h0c-.074.351-1.262,5.862-2.5,10.6-.892,3.458-1.817,6.472-2.344,6.809-.6.356-3.513,1.646-4.493,2.053,0,0-6.56,32.748-10.022,42.9-3.194,9.37-16.42,34.417-16.42,34.417L61.05,306.786S76.032,281.361,77.609,276.8C80.05,269.735,89.2,235.2,89.2,235.2s-.069-10.808,3.573-15.528Z" transform="translate(-58.076 -170.472)" fill="#263238"/>
      <path id="Path_1644" data-name="Path 1644" d="M82.93,411.01c-2.741-1.53-1.932-1.128-4.692-2.63-1.35-.735-10.226-5.547-11.6-6.01-.028,0-.055.037-.028.055,1.156.883,10.11,5.547,11.474,6.255,2.774,1.447,2,1,4.808,2.418C82.962,411.121,82.962,411.042,82.93,411.01Z" transform="translate(-61.058 -268.714)" fill="#37474f"/>
      <path id="Path_1645" data-name="Path 1645" d="M132.518,238.865c.527-.134,1.091-.18,1.623-.263.435-.069.864-.143,1.294-.24a5.6,5.6,0,0,0,2.279-.957,5.4,5.4,0,0,0,1.479-2.311c.213-.5.435-1,.656-1.493.106-.24.217-.462.328-.721a7.636,7.636,0,0,0,.4-.86c0-.046.083-.023.065,0a5.6,5.6,0,0,0-.18.619c-.074.24-.143.462-.217.726-.134.43-.264.86-.4,1.285a10.12,10.12,0,0,1-.925,2.261,4.739,4.739,0,0,1-3.624,1.946c-.407.055-.814.083-1.225.106a8.617,8.617,0,0,1-1.544,0C132.458,238.995,132.435,238.884,132.518,238.865Z" transform="translate(-96.477 -177.098)" fill="#37474f"/>
      <path id="Path_1646" data-name="Path 1646" d="M165.794,255.781a38.2,38.2,0,0,0-6.01,2.8.069.069,0,0,0,.055.125c2.029-.874,4.091-1.706,6.07-2.686a.134.134,0,0,0-.116-.24Z" transform="translate(-111.151 -189.886)" fill="#37474f"/>
      <path id="Path_1647" data-name="Path 1647" d="M169.318,225.711c0-.069-.129-.088-.129,0a66.8,66.8,0,0,1-.337,6.768c-.1,1.04-.925,6.809-2.746,6.389-.3-.074-.462-.37-.5-.827a7.453,7.453,0,0,1,.24-1.766q.305-1.812.462-3.638a33,33,0,0,0-.074-6.823.06.06,0,0,0-.116,0,62.87,62.87,0,0,1-.559,9.417c-.227,1.5-.985,3.758.587,3.985s2.63-3.546,2.825-4.581a34.526,34.526,0,0,0,.351-8.922Z" transform="translate(-114.065 -173.689)" fill="#37474f"/>
      <path id="Path_1648" data-name="Path 1648" d="M166.628,254.422a9.129,9.129,0,0,0-.407,1.2,2.774,2.774,0,0,0-.171.98.069.069,0,0,0,.125.028,3.351,3.351,0,0,0,.421-.957c.139-.37.287-.735.411-1.109a.2.2,0,0,0-.379-.139Z" transform="translate(-114.537 -189.1)" fill="#37474f"/>
      <path id="Path_1649" data-name="Path 1649" d="M72.234,305.375c2.732-5.141,5.547-10.235,8.372-15.325,1.387-2.51,2.848-4.988,4.161-7.531a45.587,45.587,0,0,0,3.033-7.859q2.538-8.238,4.8-16.554t4.253-16.7c.333-1.387.7-2.774.966-4.207a12.809,12.809,0,0,0,0-4.3,13.868,13.868,0,0,1-.032-4.008,26.44,26.44,0,0,1,.925-3.92c.213-.675.462-1.345.675-2.016a.061.061,0,1,1,.116.037c-.827,2.709-1.673,5.446-1.493,8.321.083,1.387.462,2.727.425,4.114a19.615,19.615,0,0,1-.7,4.068q-1.955,8.437-4.2,16.8t-4.748,16.642a65.463,65.463,0,0,1-2.732,7.979c-1.156,2.566-2.621,4.993-4,7.447q-4.244,7.632-8.631,15.149l-1.123,1.9a.037.037,0,1,1-.065-.037Z" transform="translate(-64.087 -172.214)" fill="#37474f"/>
      <path id="Path_1650" data-name="Path 1650" d="M157.449,157.241c2.584,4.849,14.118,15.62,18.352,16.078,3.065.333,14.155-7.549,17.169-10.364,2.9-2.718-6.717-11-8.534-9.523-2.566,2.085-8.256,8.178-9.454,8.321-.837.1-5.843-2.566-13.563-7.507C157.144,151.532,155.9,154.366,157.449,157.241Z" transform="translate(-109.569 -134.703)" fill="#d3766a"/>
      <path id="Path_1651" data-name="Path 1651" d="M223.675,141.908c1.761-.874,3.7-2.02,5.755-2.233s4.077,2.274,4.161,3.046-.083,5.686-2.126,5.936-1.262-3.6-1.387-4.017-.273-.925-.656-.86-6.731,4.119-6.731,4.119Z" transform="translate(-144.993 -127.451)" fill="#d3766a"/>
      <path id="Path_1652" data-name="Path 1652" d="M225.18,141.525c.116,0,5.325-2.848,7.373-3.06s4.073,2.274,4.161,3.046-.083,5.686-2.126,5.936-1.267-3.6-1.387-4.013-.273-.925-.652-.86-6.731,4.114-6.731,4.114Z" transform="translate(-146.332 -126.8)" fill="#d3766a"/>
      <path id="Path_1653" data-name="Path 1653" d="M238.366,151.918a2.427,2.427,0,0,1-.462-1.165,4.054,4.054,0,0,1-.088-1.313,7.519,7.519,0,0,0,.111-1.156,2.275,2.275,0,0,0-.421-1.045c-.194-.268-.462-.134-.726,0a10.075,10.075,0,0,0-1.049.638c-.365.24-.73.49-1.091.74a10.455,10.455,0,0,0-1.1.8.032.032,0,0,0,.032.055,10.987,10.987,0,0,0,.975-.6l1.1-.68c.347-.208.68-.43,1.031-.633.12-.074.365-.245.518-.227s.282.388.333.508a1.946,1.946,0,0,1,.065,1.114,6.294,6.294,0,0,0-.074,1.142,3.023,3.023,0,0,0,.217,1.054,4.494,4.494,0,0,0,.6.823C238.329,152,238.389,151.951,238.366,151.918Z" transform="translate(-150.818 -131.442)" fill="#263238"/>
      <path id="Path_1654" data-name="Path 1654" d="M212.59,140.963s5.025-5.852,6.079-7.027c2.113-2.344,11.557-7.637,12.944-7.956s2.219,2.464-4.161,6.255c-3.37,1.992-3.754,4.114-3.546,5.233s1.544,3.1,3.439,2.811,2.774-3.213,4.5-3.735.948,2.825-.055,4.826a11.774,11.774,0,0,1-4.623,4.623c-1.567.818-6.389,3.638-6.389,3.638Z" transform="translate(-139.562 -120.08)" fill="#d3766a"/>
      <path id="Path_1655" data-name="Path 1655" d="M242.619,145.865a4.829,4.829,0,0,1-2.311,1.613,2.349,2.349,0,0,1-2.233-1.137,3.634,3.634,0,0,1-.823-2.566,4.438,4.438,0,0,1,1.04-2.311,10.83,10.83,0,0,1,2.367-2.034c.037,0,0-.079-.046-.055-.827.5-3.412,1.946-3.661,4.419a3.726,3.726,0,0,0,.86,2.616,2.653,2.653,0,0,0,2.15,1.318c1.137-.046,1.988-1.077,2.714-1.849C242.712,145.852,242.652,145.833,242.619,145.865Z" transform="translate(-152.658 -127.294)" fill="#263238"/>
      <path id="Path_1656" data-name="Path 1656" d="M183.7,153.276l7.045,14.4s-11.964,6.255-15.717,5.691-14.192-9.994-18.172-16c-2.422-3.666-.435-6.56,4.5-3.657,5.085,2.986,12.2,7.105,12.717,7.221S183.7,153.276,183.7,153.276Z" transform="translate(-109.036 -134.367)" fill="#c7c7c7"/>
      <path id="Path_1657" data-name="Path 1657" d="M213.778,166.152c-.462-1.086-2.237-5.46-2.6-6.578,0,0,0-.032.032,0,.555,1,2.441,5.261,2.9,6.352a64.866,64.866,0,0,1,2.533,6.592c0,.042-.051.079-.069.037C215.5,170.488,214.675,168.3,213.778,166.152Z" transform="translate(-138.804 -138.149)" fill="#263238"/>
      <path id="Path_1658" data-name="Path 1658" d="M156.843,157.367c3.236,4.882,10.725,12.019,15.435,14.825l-13.891-19.628h0C155.72,152.19,154.971,154.543,156.843,157.367Z" transform="translate(-109.028 -134.367)" fill="#a6a6a6"/>
      <path id="Path_1659" data-name="Path 1659" d="M129.649,182.984c.069.079,24.713.333,24.963,0,.37-.462-5.4-25.227-7.554-29.822-.925-1.96-5.746-2.478-7.752-.777C134.295,156.671,129.395,182.706,129.649,182.984Z" transform="translate(-94.958 -133.74)" fill="#fff"/>
      <path id="Path_1660" data-name="Path 1660" d="M136.717,152.5s2.718,12.745,2.972,13.665,1.225,24.2,1.225,24.2L124,188.327s3.606-12.944,4.008-13.554,3.615-14.331,6.236-19.328A7.165,7.165,0,0,1,136.717,152.5Z" transform="translate(-91.925 -134.354)" fill="#c7c7c7"/>
      <path id="Path_1661" data-name="Path 1661" d="M166.07,153.7s1.336,10.2,1.387,10.8,4.623,25.823,4.623,25.823l4.373-2.339s-4.66-16.582-4.868-17.372S167.8,156.82,167.216,155.4,166.07,153.7,166.07,153.7Z" transform="translate(-114.547 -134.999)" fill="#c7c7c7"/>
      <path id="Path_1662" data-name="Path 1662" d="M185.13,199.155l-6.01,13.79a.522.522,0,0,0,.347.841l7.424,1.225a1.23,1.23,0,0,0,1.156-.6l6.01-13.79a.518.518,0,0,0-.347-.841l-7.42-1.22a1.207,1.207,0,0,0-1.16.592Z" transform="translate(-121.505 -159.12)" fill="#37474f"/>
      <path id="Path_1663" data-name="Path 1663" d="M187.036,199.45l-6.01,13.785a.522.522,0,0,0,.347.846l7.438,1.22a1.216,1.216,0,0,0,1.151-.592l6.01-13.79a.518.518,0,0,0-.347-.841l-7.42-1.225a1.22,1.22,0,0,0-1.17.6Z" transform="translate(-122.528 -159.276)" fill="#455a64"/>
      <path id="Path_1664" data-name="Path 1664" d="M196.849,201.416a.638.638,0,1,1-.509-.749.638.638,0,0,1,.509.749Z" transform="translate(-130.418 -160.248)" fill="#263238"/>
      <path id="Path_1665" data-name="Path 1665" d="M129.672,157.263c-4.812,6.01-15.2,19.8-12.518,23.248,4.41,5.663,15.607,11,19.134,12.25,1.526.545,7.632-10.411,6.222-11.409-1.692-1.2-12.676-6.176-12.7-6.722s2.464-8.178,3.462-14.21C134.508,152.931,131.678,154.748,129.672,157.263Z" transform="translate(-88.01 -135.737)" fill="#d3766a"/>
      <path id="Path_1666" data-name="Path 1666" d="M159.5,207.05s4.785-1.142,7.947-1.738a19.651,19.651,0,0,1,6.25-.291c2.108.518,10.591,4.036,9.782,6.111-.735,1.881-7.637-2.071-7.637-2.071s7.318,3.37,6.01,5.469-8.5-3.4-8.5-3.4,7.443,3.629,5.76,5.584c-1.271,1.475-8.076-3.139-8.076-3.139s6.375,3.167,5.131,4.738c-1.387,1.738-7.919-2.122-7.919-2.122-3.828,3.472-7.013,3.8-9.384,3.342C158.324,219.435,159.5,207.05,159.5,207.05Z" transform="translate(-110.597 -162.512)" fill="#d3766a"/>
      <path id="Path_1667" data-name="Path 1667" d="M191.156,211.438c5.575,2.071,7.678,4.794,7.609,4.734a33.739,33.739,0,0,0-5.483-3.509c-.86-.439-1.308-.754-2.145-1.193C191.115,211.456,191.133,211.429,191.156,211.438Z" transform="translate(-128.021 -166.045)" fill="#263238"/>
      <path id="Path_1668" data-name="Path 1668" d="M186.857,217.559a20.382,20.382,0,0,1,6.338,3.361c.069.065.028.074-.055.032-1.049-.592-5.219-2.829-6.3-3.37C186.829,217.578,186.843,217.555,186.857,217.559Z" transform="translate(-125.715 -169.337)" fill="#263238"/>
      <path id="Path_1669" data-name="Path 1669" d="M182.774,222.577a15.02,15.02,0,0,1,4.831,2.746c.069.055,0,.079-.079.032-1.586-.948-2.825-1.7-4.775-2.718C182.718,222.619,182.737,222.564,182.774,222.577Z" transform="translate(-123.508 -172.035)" fill="#263238"/>
      <path id="Path_1670" data-name="Path 1670" d="M138.933,178.974l-6.994,13.133s-14.622-8.867-15.565-12.74,10.142-20.091,13.406-23.35,4.221-1.807,3.934,2.085-3.971,15.889-3.911,16.12S138.933,178.974,138.933,178.974Z" transform="translate(-87.794 -135.277)" fill="#c7c7c7"/>
      <path id="Path_1671" data-name="Path 1671" d="M146.71,178.805q.374-1.35.735-2.7c.125-.462.245-.925.379-1.387.06-.213.116-.43.18-.647.028-.106.069-.213.092-.319a1.849,1.849,0,0,1,.129-.43c0-.023.051,0,.046,0a3.285,3.285,0,0,1-.042.342,4.344,4.344,0,0,0-.092.425l-.139.656c-.1.462-.2.9-.31,1.341l-.042.176a.2.2,0,0,1,0-.046c.19-.462.388-.957.582-1.433h.037c-.143.5-.3.985-.49,1.47-.106.277-.231.55-.356.818-.153.6-.3,1.193-.462,1.784-.485,1.849-.985,3.7-1.618,5.464.767.4,1.558.763,2.311,1.165s1.535.818,2.311,1.234,1.53.823,2.288,1.248l1.077.619c.393.222.758.495,1.151.707.042,0,0,.083-.037.06-.411-.217-.855-.379-1.271-.582s-.735-.361-1.1-.55c-.777-.393-1.544-.8-2.311-1.211s-1.539-.814-2.311-1.23-1.5-.874-2.261-1.29a.083.083,0,0,1-.046-.06.1.1,0,0,1-.037-.106C145.628,182.471,146.2,180.645,146.71,178.805Z" transform="translate(-103.272 -145.542)" fill="#263238"/>
      <path id="Path_1672" data-name="Path 1672" d="M147.65,212c.522-.948,2.626-4.738,3.236-5.64h.032c-.4.971-2.367,4.771-2.885,5.723a59.6,59.6,0,0,1-3.273,5.612c-.023.032-.083,0-.065-.028C145.542,215.721,146.628,213.877,147.65,212Z" transform="translate(-103.052 -163.315)" fill="#263238"/>
      <path id="Path_1673" data-name="Path 1673" d="M126.149,219.6c.823.5,8.03,5.806,9.708,6.8.1.055-.028.083-.12.028a107.3,107.3,0,0,1-9.634-6.759C126.038,219.622,126.079,219.562,126.149,219.6Z" transform="translate(-93.039 -170.429)" fill="#263238"/>
      <path id="Path_1674" data-name="Path 1674" d="M157.045,150.134c-1.539.176-4.16-2.64-4.942-4.623-.055-.134.3-1.452.652-3.07.208-.985.416-2.085.536-3.1l6.2,2.311a16.5,16.5,0,0,0-1.073,3.837,2.146,2.146,0,0,0,0,.421v.069C158.45,146.787,158.524,149.959,157.045,150.134Z" transform="translate(-107.034 -127.277)" fill="#d3766a"/>
      <path id="Path_1675" data-name="Path 1675" d="M160.291,146.108a.342.342,0,0,0,0,.069,4.156,4.156,0,0,1-.661-.037c-3.7-.518-4.022-5.141-4.04-6.43l1.549.573,4.23,1.567a16.254,16.254,0,0,0-1.072,3.837A2.145,2.145,0,0,0,160.291,146.108Z" transform="translate(-108.912 -127.476)" fill="#263238"/>
      <path id="Path_1676" data-name="Path 1676" d="M152.738,121.09c-.522,2.311,1.165,8.783,2.894,10.138,2.5,1.946,6.352,1.849,7.942-1.086,1.544-2.862-.809-11.261-2.714-12.454C158.054,115.926,153.51,117.655,152.738,121.09Z" transform="translate(-107.326 -115.259)" fill="#d3766a"/>
      <path id="Path_1677" data-name="Path 1677" d="M167.3,134s-.028.028-.023.046c.125.435.194.948-.162,1.2v.023C167.6,135.086,167.494,134.4,167.3,134Z" transform="translate(-115.112 -124.406)" fill="#263238"/>
      <path id="Path_1678" data-name="Path 1678" d="M165.943,133.252c-.717.125-.407,1.549.254,1.428S166.544,133.131,165.943,133.252Z" transform="translate(-114.258 -124)" fill="#263238"/>
      <path id="Path_1679" data-name="Path 1679" d="M172.89,132.69s.037,0,.042.032c.079.462.25.925.68,1v.023C173.112,133.781,172.895,133.125,172.89,132.69Z" transform="translate(-118.215 -123.701)" fill="#263238"/>
      <path id="Path_1680" data-name="Path 1680" d="M173.183,131.486c.693-.208,1.054,1.2.411,1.387S172.6,131.657,173.183,131.486Z" transform="translate(-118.212 -123.043)" fill="#263238"/>
      <path id="Path_1681" data-name="Path 1681" d="M164.368,130.773a5.743,5.743,0,0,0,.508-.31,1.021,1.021,0,0,0,.462-.421.31.31,0,0,0-.125-.351.767.767,0,0,0-.772.083,1.1,1.1,0,0,0-.527.61.328.328,0,0,0,.453.388Z" transform="translate(-113.382 -122.053)" fill="#263238"/>
      <path id="Path_1682" data-name="Path 1682" d="M172.869,128.724a4.292,4.292,0,0,1-.6-.028.971.971,0,0,1-.6-.143.3.3,0,0,1-.065-.37.772.772,0,0,1,.712-.3,1.128,1.128,0,0,1,.763.277.328.328,0,0,1-.213.564Z" transform="translate(-117.505 -121.113)" fill="#263238"/>
      <path id="Path_1683" data-name="Path 1683" d="M168.031,142.742c.129.079.264.2.425.18a1.276,1.276,0,0,0,.462-.213.61.61,0,0,1-.508.361.462.462,0,0,1-.43-.319C167.989,142.747,168.012,142.728,168.031,142.742Z" transform="translate(-115.574 -129.089)" fill="#263238"/>
      <path id="Path_1684" data-name="Path 1684" d="M168.464,133.673a1.535,1.535,0,0,0,1.146.462,1.876,1.876,0,0,0,.545-.092l.1-.032.1-.037a.106.106,0,0,0,.065-.116h0a.148.148,0,0,0,0-.042h0v-.037c-.065-.342-.208-.851-.208-.851.139.032.832.18.781,0a23.345,23.345,0,0,0-1.553-4.419.042.042,0,1,0-.079.032c.328,1.387.925,2.746,1.262,4.16a2.714,2.714,0,0,0-.754-.06c-.046.023.3.98.31,1.133a2.14,2.14,0,0,1-1.66-.148C168.459,133.608,168.432,133.645,168.464,133.673Z" transform="translate(-115.827 -121.439)" fill="#263238"/>
      <path id="Path_1685" data-name="Path 1685" d="M169.856,139.92a1.849,1.849,0,0,1-.592.707.813.813,0,0,1-.462.134c-.37,0-.462-.337-.462-.629a2.149,2.149,0,0,1,.065-.462A2.311,2.311,0,0,0,169.856,139.92Z" transform="translate(-115.768 -127.455)" fill="#263238"/>
      <path id="Path_1686" data-name="Path 1686" d="M169.265,141.149a.813.813,0,0,1-.462.134c-.37,0-.462-.337-.462-.629a.846.846,0,0,1,.925.495Z" transform="translate(-115.768 -127.977)" fill="#ff98b9"/>
      <path id="Path_1687" data-name="Path 1687" d="M152.806,122.682c.328-1.317-.587-3.4,0-4.031,1.276-1.359,4.313.786,6.259.633s2.413-1.387,1.942-2.912-1.849-2.418-3.994-2.556a7.956,7.956,0,0,0-5.164,1.7s.411-.8.213-1.026-1.059.587-1.317.925a2.862,2.862,0,0,0-.384.925,3.055,3.055,0,0,0-.869,0,1.8,1.8,0,0,0-1.072.6c-.028.116.666.148,1.151.129a4.5,4.5,0,0,0-.693,2.284c.1,1.017,2.1,5.728,2.487,5.746C151.863,125.1,152.672,123.191,152.806,122.682Z" transform="translate(-105.056 -113.55)" fill="#263238"/>
      <path id="Path_1688" data-name="Path 1688" d="M150.051,120.5h0a3.3,3.3,0,0,0-.9,1.53,4.022,4.022,0,0,0,.157,2.1,19.351,19.351,0,0,0,1.849,3.657c.023.037-.037.069-.06.037a14.331,14.331,0,0,1-1.988-3.943A3.142,3.142,0,0,1,150.051,120.5Z" transform="translate(-105.356 -117.147)" fill="#263238"/>
      <path id="Path_1689" data-name="Path 1689" d="M157.606,123.066a4.581,4.581,0,0,1,1.72-.032,6.583,6.583,0,0,1,1.53.6,6.573,6.573,0,0,0,3.564.661v.028a5.746,5.746,0,0,1-3.3-.425,15.915,15.915,0,0,0-1.59-.675,6.037,6.037,0,0,0-1.914-.055.051.051,0,0,1-.009-.1Z" transform="translate(-109.971 -118.473)" fill="#263238"/>
      <path id="Path_1690" data-name="Path 1690" d="M158.259,114.547a9.209,9.209,0,0,1,2.353-1,7.092,7.092,0,0,1,2.432-.287,3.547,3.547,0,0,1,3.236,2.311,3.042,3.042,0,0,1-.1,2.2.038.038,0,1,1-.069-.032,3.157,3.157,0,0,0-1.031-3.643,5.1,5.1,0,0,0-4.253-.49,13.25,13.25,0,0,0-2.547.966S158.255,114.551,158.259,114.547Z" transform="translate(-110.347 -113.246)" fill="#263238"/>
      <path id="Path_1691" data-name="Path 1691" d="M163.923,134.7a1.9,1.9,0,1,1,1.646-2.5h0a1.9,1.9,0,0,1-1.183,2.4A1.794,1.794,0,0,1,163.923,134.7Zm-.282-3.527a1.525,1.525,0,0,0-.4.083,1.641,1.641,0,1,0,.4-.083Z" transform="translate(-112.294 -122.745)" fill="#519259"/>
      <path id="Path_1692" data-name="Path 1692" d="M173.57,132.84a1.769,1.769,0,0,1-1.632-1.6,2.256,2.256,0,0,1,.134-1.387,1.253,1.253,0,0,1,.878-.758,1.271,1.271,0,0,1,1.1.361,2.275,2.275,0,0,1,.652,1.225,1.713,1.713,0,0,1-1.017,2.136Zm-.462-3.5h-.092a1.022,1.022,0,0,0-.7.615,2.071,2.071,0,0,0-.116,1.22c.18.892.832,1.512,1.461,1.387s.989-.925.814-1.849a2,2,0,0,0-.578-1.086,1.031,1.031,0,0,0-.8-.287Z" transform="translate(-117.674 -121.758)" fill="#519259"/>
      <path id="Path_1693" data-name="Path 1693" d="M169.589,133.411l-.2-.157a1.042,1.042,0,0,1,1.387-.347l-.148.2C170.134,132.755,169.607,133.384,169.589,133.411Z" transform="translate(-116.333 -123.734)" fill="#519259"/>
      <path id="Path_1694" data-name="Path 1694" d="M151.815,136.527l-.245-.069c.032-.116.333-1.114.874-1.317s3.9-.536,4.04-.55l.028.25c-.975.1-3.592.393-3.98.541S151.894,136.254,151.815,136.527Z" transform="translate(-106.75 -124.723)" fill="#519259"/>
      <path id="Path_1695" data-name="Path 1695" d="M153.394,135.479s-1.683-1.979-2.593-1.359.495,3.587,1.664,3.9a1.156,1.156,0,0,0,1.479-.763Z" transform="translate(-106.179 -124.406)" fill="#d3766a"/>
      <path id="Path_1696" data-name="Path 1696" d="M152.048,136.08s-.023,0,0,.028a2.94,2.94,0,0,1,1.673,1.673.643.643,0,0,0-.966-.083v.042a.717.717,0,0,1,.8.171,3.43,3.43,0,0,1,.43.6c.046.065.166,0,.134-.065h0C154.059,137.43,153.139,136.08,152.048,136.08Z" transform="translate(-107.002 -125.524)" fill="#263238"/>
      <path id="Path_1697" data-name="Path 1697" d="M157.011,151.857l-1.757,3.7-4.4-5.085-1.424,1.452s4.119,7.886,4.16,7.544l1.761-3.162,2.108,2.408.171-5.7Z" transform="translate(-105.6 -133.262)" fill="#fff"/>
      <path id="Path_1698" data-name="Path 1698" d="M157.915,158.021c0-.925,0-1.891-.028-2.834,0-.032-.051-.051-.06,0a51.156,51.156,0,0,0-.273,5.358h0c-.088-.106-1.96-2.126-1.983-2.1-.37.5-1.664,2.8-1.752,3.009-.652-1.253-3.162-5.815-3.952-7.008a.033.033,0,0,0-.06.028c.564,1.313,3.879,7.457,3.939,7.443a36.546,36.546,0,0,0,1.849-3.342,25.532,25.532,0,0,0,2.2,2.561A28.825,28.825,0,0,0,157.915,158.021Z" transform="translate(-105.8 -135.391)" fill="#263238"/>
    </g>
  </g>
</svg>
